<svg width="67" height="67" xmlns="http://www.w3.org/2000/svg">
 <metadata id="metadata8">image/svg+xml</metadata>

 <g>
  <title>background</title>
  <rect x="-1" y="-1" width="69" height="69" id="canvas_background" fill="none"/>
 </g>
 <g>
  <title>Layer 1</title>
  <g id="g10" transform="matrix(1.3333333,0,0,-1.3333333,0,64.106667) ">
   <g id="g12" transform="translate(0,-0.2542372941970825) scale(0.10000000149011612) ">
    <path d="m99.56204,217.99767c-0.05078,-76.894 94.96098,-161.6948 151.81278,-164.6441l-0.157,0c56.848,2.9493 151.864,87.7691 151.809,164.6561c0.367,104.414 0,248.211 0,248.211l-303.46478,-0.031l0,-248.192" id="path14" fill-rule="nonzero" fill="#0d3258"/>
    <path d="m103.50735,462.24467l0,-244.247c-0.05078,-75.691 94.66447,-157.6519 147.78547,-160.6792c53.133,3.0273 147.843,85.0002 147.793,160.6872c0.324,93.641 0.062,220.43 0.007,244.27l-295.58547,-0.031zm147.78547,-412.8442l-0.207,0.0078c-57.1332,3.0547 -155.52378,87.5044 -155.46519,168.5934l0,252.133l311.34419,0.031l0.007,-3.937c0.008,-1.434 0.368,-144.992 0,-248.231c0.063,-81.082 -98.324,-165.5347 -155.464,-168.5894l-0.215,-0.0078" id="path16" fill-rule="nonzero" fill="#ffffff"/>
    <path d="m249.05382,361.59167l0,-267.332l9.653,0l0,267.332l-9.653,0" id="path18" fill-rule="nonzero" fill="#a3e1f9"/>
    <path d="m317.58982,363.22867c8.625,0.035 22.554,-0.039 31.574,-0.039c2.816,0 7.41,0.832 4.832,-5.359c-2.285,-5.485 -5.57,-13.114 -6.992,-16.403c-4.762,0 -24.086,-0.012 -24.137,0.078c-1.527,3.582 -3.738,8.684 -6.535,15.145c-1.496,3.457 -2.231,6.578 1.258,6.578zm-4.372,-93.699l47.649,0c14.062,0 15.34,-1.926 16.336,-4.949c-0.586,4.691 -3.625,28.679 -5.742,46.046c-0.547,4.536 -2.137,16.996 -8.422,24.43c-1.988,2.395 -2.946,3.59 -7.211,5.414c0.332,0.945 4.215,10.61 7.101,18.41c1.477,3.989 -0.121,7.965 -3.171,9.825c-2.657,1.585 -6.059,1.664 -8.489,1.664c-16.332,0 -28.933,-0.028 -33.968,-0.028c-8.731,0 -12.782,-5.547 -10.114,-12.254c2.031,-5.082 5.387,-13.738 6.93,-17.703c-10.734,-3.578 -14.281,-18.222 -15.84,-30.918c-2.594,-21.402 -6.105,-49.937 -6.351,-51.644c-0.379,-2.719 -0.833,-4.957 3.632,-5.172c8.461,-0.547 18.352,-0.606 34.985,-0.176c1.613,-0.902 3.699,-1.469 6.418,-1.383c2.699,0.039 4.672,0.762 6.09,1.774c6.789,0.23 14.507,0.547 23.335,0.902c-7.746,0.184 -15.027,0.406 -21.742,0.594c2.414,3.008 2.168,7.133 1.953,7.922c-1.015,-11.153 -15.507,-10.075 -11.914,1.754c-1.562,0 -5.59,0 -8.152,-2.09c-0.695,-1.739 -0.453,-4.629 1.195,-7.016c-9.41,0.41 -17.148,0.75 -22.758,1.066c-2.871,0.145 -4.269,2.223 -2.796,4.149c6.058,7.914 6.421,9.383 11.046,9.383" id="path20" fill-rule="nonzero" fill="#fccc22"/>
    <path d="m251.61682,95.40467c0,-3.1253 -2.09,-5.6956 -4.684,-5.6956c-2.59,0 -4.695,2.5703 -4.695,5.6956l0,26.535c0,3.101 2.105,5.676 4.695,5.676c2.594,0 4.684,-2.575 4.684,-5.676l0,-26.535" id="path22" fill-rule="nonzero" fill="#ffffff"/>
    <path d="m186.20262,410.41967c1.5079,0.621 3.6641,0.457 5.6329,0.457c-2.1875,1.829 -4.168,2.539 -5.3829,2.844c-2.8007,10.625 -18.1484,7.75 -19.6679,-1.66c-0.5469,-3.398 -12.6172,-4.902 -26.4375,-23.383c-6.3711,-8.488 -15.1758,-15.855 -17.8321,-17.555c-2.6875,-1.671 3.8399,-1.175 6.8555,2.028c2.8438,-2.863 8.3985,5.703 16.7656,7.14c2.2188,0.368 30.0235,5.422 22.7032,21.329c9.789,-12.602 -6.5391,-21.661 -16.8243,-22.657c0.9024,-0.48 6.254,-0.906 6.8594,-1.144c1.5352,-0.539 -0.457,-2.399 0.793,-3.11c3,-1.66 8.9531,-7.269 8.9531,-7.269c0,0 3.3672,1.148 1.8555,2.687c-4.5938,3.024 -5.836,3.942 -7.0078,5.825c-0.0821,0.117 -1.5625,2.902 1.4609,3.703c4.3555,0.351 18.6055,5.418 16.1875,23.289c-0.3867,2.832 1.5899,5.89 5.0859,7.476" id="path24" fill-rule="nonzero" fill="#df9824"/>
    <path d="m184.12842,413.38467c0,-0.933 -0.6992,-1.679 -1.5547,-1.679c-0.8242,0 -1.5156,0.746 -1.5156,1.679c0,0.91 0.6914,1.688 1.5156,1.688c0.8555,0 1.5547,-0.778 1.5547,-1.688" id="path26" fill-rule="nonzero" fill="#0d3258"/>
    <path d="m255.98382,128.60767l0,-37.5587l5.141,0l0,37.5587l-5.141,0" id="path28" fill-rule="nonzero" fill="#ffffff"/>
    <path d="m265.68282,85.20907c1.543,1.5899 2.461,3.7578 2.461,6.1524c0,4.9142 -3.988,8.9452 -8.929,8.9452l-15.196,0c-4.941,0 -8.961,-4.031 -8.961,-8.9452c0,-2.3165 0.903,-4.375 2.321,-5.9766c-1.84,-1.6406 -5.121,-4.8359 -6.024,-5.918c10.192,-4.4922 29.574,-4.1211 40.5,0.0703c-1.027,0.8672 -4.519,4.1094 -6.172,5.6719" id="path30" fill-rule="nonzero" fill="#fccc22"/>
    <path d="m251.38282,393.46667c0,-0.23 -0.024,-0.172 -0.024,0.063c-6.601,5.902 -27.781,8.418 -41.41,4.937c0.894,-1.656 1.992,-6.953 2.57,-9.062c20.11,6.687 38.84,-3.082 38.84,-3.082c0,0.043 0,0.121 0.012,0.179c0,-0.058 0,-0.16 0.012,-0.207c0,0 18.73,9.758 38.863,3.071c0.555,2.109 1.68,7.382 2.566,9.027c-13.636,3.508 -34.828,0.996 -41.429,-4.926" id="path32" fill-rule="nonzero" fill="#a3e1f9"/>
    <path d="m257.47582,361.60767l0,-207.137l3,0l0,207.137l-3,0" id="path34" fill-rule="nonzero" fill="#ffffff"/>
    <path d="m242.38282,361.59167l0,-192.199l9.601,0l0,192.199l-9.601,0" id="path36" fill-rule="nonzero" fill="#ffffff"/>
    <path d="m261.16782,287.65067c0.621,2.25 0.91,7.805 0,9.555c-4.512,0 -11.504,-0.04 -15.594,0.074c9.344,-3.426 15.594,-9.629 15.594,-9.629" id="path38" fill-rule="nonzero" fill="#0d3258"/>
    <path d="m227.47982,116.53767c5.367,-0.809 34.207,-2.184 34.207,-2.184l4.699,-12.223c0,0 -25.164,0.664 -38.906,14.407" id="path40" fill-rule="nonzero" fill="#0d3258"/>
    <path d="m345.46482,204.20567c-9.016,5.82 -19.961,1.339 -31.789,11.273c0.039,-30.84 22.492,-37.031 9.855,-45.262c-11.27,-7.367 -22.176,-9.191 -33.512,-8.25c0.965,1.555 2.664,4.348 4.016,5.742c-13.887,1.782 -25.992,0.782 -31.078,0.188c-17.285,5.074 -36.465,11.48 -59.571,11.844c4.188,-3.418 8.325,-9.352 8.325,-19.575c-3.504,13.797 -17.8558,21.016 -24.9066,23.762c-2.1094,0.797 -4.082,1.168 -6.1328,1.512c-1.0352,-1.418 -3.2695,-3.785 -7.0078,-5.188c-2.1328,1.133 -3.8711,-0.886 -3.5781,-1.55c0.1211,-0.329 0.0781,-0.657 -0.1875,-0.985c-2.0664,-2.676 -8.8204,-1.394 -13.8672,0.344c-5.8086,2.012 -5.5742,-1.992 -4.4492,-3.992c1.8242,-3.231 3.5859,-5.317 4.4492,-7.106c7.7148,-15.75 13.4336,-26.097 30.5273,-35.875c16.2497,-11.996 36.6797,-18.172 57.4607,-18.879c7.574,-2.711 24.992,-7.527 46.832,-4.031c-4.242,2.863 -8.492,5.676 -9.89,8.512c27.746,8.016 51.742,26.258 61.547,53.769c0.117,0.297 0.218,0.594 0.328,0.903c1.761,6.031 -4.078,14.039 -12.371,6.133c7.183,17.261 19.07,9.796 16.546,-0.414c9.489,12.773 22.168,26.488 39.098,31.683c-15.469,7.149 -30.664,0.957 -40.644,-4.558" id="path42" fill-rule="nonzero" fill="#a3e1f9"/>
    <path d="m261.46782,231.11167c0.625,2.265 0.891,7.84 0,9.554c-4.523,0 -11.511,-0.062 -15.578,0.067c9.328,-3.41 15.578,-9.621 15.578,-9.621" id="path44" fill-rule="nonzero" fill="#0d3258"/>
    <path d="m268.01482,249.28367c0,-4.957 -4.074,-8.957 -9.054,-8.957l-15.414,0c-5,0 -9.067,4 -9.067,8.957c0,4.945 4.067,8.918 9.067,8.918l15.414,0c4.98,0 9.054,-3.973 9.054,-8.918" id="path46" fill-rule="nonzero" fill="#fccc22"/>
    <path d="m258.69882,243.36567c-9.039,-0.102 -16.809,0 -16.809,0c0,0 12.735,0.757 20.793,9.382c2.129,-1.417 2.524,-9.359 -3.984,-9.382" id="path48" fill-rule="nonzero" fill="#df9824"/>
    <path d="m261.60882,173.78767c0.625,2.242 0.887,7.835 0,9.55c-4.512,0 -11.488,-0.05 -15.57,0.067c9.324,-3.41 15.57,-9.617 15.57,-9.617" id="path50" fill-rule="nonzero" fill="#0d3258"/>
    <path d="m268.12882,192.21667c0,-4.953 -4.051,-8.957 -9.043,-8.957l-15.403,0c-5.019,0 -9.05,4.004 -9.05,8.957c0,4.946 4.031,8.903 9.05,8.903l15.403,0c4.992,0 9.043,-3.957 9.043,-8.903" id="path52" fill-rule="nonzero" fill="#fccc22"/>
    <path d="m258.80782,186.30667c-9.043,-0.086 -16.781,0.016 -16.781,0.016c0,0 12.699,0.703 20.774,9.375c2.128,-1.438 2.542,-9.352 -3.993,-9.391" id="path54" fill-rule="nonzero" fill="#df9824"/>
    <path d="m237.74182,347.07667l0,-26.743l27.226,0l0,26.743l-27.226,0" id="path56" fill-rule="nonzero" fill="#fccc22"/>
    <path d="m264.96782,320.36967c-4.621,-1.118 -4.324,-4.981 -4.492,-6.414c0,0 -10.98,-0.075 -18.195,0c0.062,0.414 0.227,5.714 -4.539,6.414c0,0 25.48,-0.02 27.226,0" id="path58" fill-rule="nonzero" fill="#df9824"/>
    <path d="m253.63982,347.07667l0,-27.067l7.375,0l0,27.067l-7.375,0" id="path60" fill-rule="nonzero" fill="#df9824"/>
    <path d="m165.08162,180.83767c-1.3711,0.516 -2.1055,1.672 -2.4766,2.543c-0.875,1.953 -0.8594,4.567 0.0976,7.028c0.9493,2.433 2.6641,4.398 4.668,5.289c0.8672,0.367 2.1914,0.707 3.5469,0.195c2.0195,-0.816 3.1484,-3.047 3.1484,-5.723c0,-1.25 -0.25,-2.562 -0.7383,-3.847c-0.9335,-2.45 -2.6875,-4.414 -4.6562,-5.301c-0.8789,-0.379 -2.1875,-0.742 -3.5898,-0.184zm0.832,18.102c-2.8594,-1.262 -5.2578,-3.902 -6.5352,-7.242c-1.3047,-3.36 -1.3047,-6.899 -0.0508,-9.782c0.9297,-2.093 2.5157,-3.675 4.4766,-4.445c1.9453,-0.738 4.1953,-0.633 6.3008,0.309c2.8711,1.242 5.2539,3.894 6.5625,7.215c2.3242,6.015 0.3008,12.359 -4.4492,14.218c-1.9532,0.778 -4.2032,0.672 -6.3047,-0.273" id="path62" fill-rule="nonzero" fill="#fccc22"/>
    <path d="m169.95662,181.79067c-1.5391,0.489 -5.3165,1.59 -9.875,1.739c-3.2305,0.101 -6.379,1.968 -6.1836,2.922c0.1757,0.679 1.0039,1.046 2.3711,1.226c3.1093,0.449 9.871,0.074 17.1718,-1.101c-0.6133,-1.758 -1.6054,-3.387 -3.4843,-4.786" id="path64" fill-rule="nonzero" fill="#a3e1f9"/>
    <path d="m181.45662,398.88067c-0.1172,-13.578 -10.5157,-17.855 -13.5235,-18.648c1.0078,3.015 5.2383,17.101 13.5235,18.648" id="path66" fill-rule="nonzero" fill="#ef2f2a"/>
    <path d="m268.22182,306.05267c0,-4.961 -4.031,-8.988 -9.058,-8.988l-15.379,0c-5.039,0 -9.07,4.027 -9.07,8.988c0,4.918 4.031,8.918 9.07,8.918l15.379,0c5.027,0 9.058,-4 9.058,-8.918" id="path68" fill-rule="nonzero" fill="#fccc22"/>
    <path d="m258.93682,300.13067c-9.047,-0.097 -16.82,0.004 -16.82,0.004c0,0 12.723,0.774 20.801,9.391c2.125,-1.445 2.527,-9.36 -3.981,-9.395" id="path70" fill-rule="nonzero" fill="#df9824"/>
    <path d="m198.58582,176.39667c9.812,-6.559 13.125,-16.231 13.125,-16.231c0,0 3.257,8.082 -1.207,14.36c8.925,2.601 24.437,-1.465 38.429,-6.938c20.547,-8.058 35.907,-10.722 51.551,-8.058c15.641,2.672 23.871,5.902 28.899,13.711c2.675,4.172 10.589,3.3 8.351,-2.957c-2.23,-6.266 -11.926,-24.149 -30.242,-29.078c-18.328,-4.899 -48.566,-13.11 -93.277,-1.922c-11.961,2.996 -40.0629,10.464 -51.5434,25.218c-2.3047,2.954 -2.8984,8.461 -3.0117,9.321c-0.1367,1.074 0.5703,1.633 3.0859,1.187c7.8711,-1.39 9.3633,1.621 12.3008,4.938c3.2187,0.418 14.5937,2.39 23.5394,-3.551" id="path72" fill-rule="nonzero" fill="#ffffff"/>
    <path d="m334.45682,171.54067c-13.664,-25.976 -40.094,-30.011 -67.742,-30.847c-11.219,-0.309 -22.426,1.074 -32.071,3.551c8.137,-0.832 16.535,-0.168 21.664,1.609c-1.996,10.426 -19.785,17.992 -32.179,18.668c-2.356,2.672 -3.036,6.156 -8.739,8.172c4.032,-3.692 3.703,-8.848 5.703,-11.524c10.161,-2.062 22.532,-4.656 28.508,-12.625c-2.105,-2.703 -20.468,-1.207 -30.476,1.078c-4.321,1.59 -8.817,4.192 -11.211,8.852c-4.781,-5.336 -12.375,-3.418 -20.1721,0.465c-0.1211,3.031 -1.9883,5.703 -6.0234,6.476c0.8789,-1.308 1.1015,-2.699 1.1093,-3.808c-8.8164,5.07 -17.2226,11.289 -21.4375,10.965c-5.9882,-0.457 13.0586,-33.883 29.1641,-37.45c47.7926,-27.558 127.6676,-15.453 146.6016,31.059c2.664,6.715 0.312,11.066 -2.699,5.359" id="path74" fill-rule="nonzero" fill="#409adb"/>
    <path d="m183.47612,162.04867c0.2656,-2.914 -2.0039,-5.535 -5.1289,-5.836c-3.0821,-0.347 -5.8281,1.797 -6.1289,4.731c-0.2774,2.937 1.9922,5.554 5.0937,5.863c3.0977,0.297 5.8594,-1.832 6.1641,-4.758" id="path76" fill-rule="nonzero" fill="#ffffff"/>
    <path d="m180.77692,161.49767c0,-1.445 -1.3282,-2.585 -2.9493,-2.585c-1.6054,0 -2.9257,1.14 -2.9257,2.585c0,1.43 1.3203,2.614 2.9257,2.614c1.6211,0 2.9493,-1.184 2.9493,-2.614" id="path78" fill-rule="nonzero" fill="#0d3258"/>
    <path d="m317.77282,209.14667c-3.285,-11.316 10.731,-26.582 10.731,-26.582c0,0 -6.356,19.797 -10.731,26.582" id="path80" fill-rule="nonzero" fill="#ffffff"/>
    <path d="m327.59682,206.71267c-4.824,-6.617 4.25,-21.703 4.25,-21.703c0,0 -0.5,12.067 -4.25,21.703" id="path82" fill-rule="nonzero" fill="#ffffff"/>
    <path d="m342.78082,189.49067c3.816,8.273 11.414,16.539 19.48,19.453c-16.781,-2.031 -20.582,-13.18 -19.48,-19.453" id="path84" fill-rule="nonzero" fill="#ffffff"/>
    <path d="m251.34682,440.33767c-7.07,13.715 -17.195,3.153 -34.933,8.633c-3.125,-14.504 -6.262,-40.461 -7.156,-44.922c12.121,-3.64 22.777,7.676 37.25,-1.754c-1.551,18.719 4.476,34.305 4.476,34.305c0,0 0.195,2.293 0.363,3.738" id="path86" fill-rule="nonzero" fill="#ffffff"/>
    <path d="m251.38582,440.38867c-1.39,2.434 -2.742,4.488 -5.085,5.828c-2.086,-22.277 -2.602,-27.117 -9.676,-40.187c4.398,-0.567 7.633,-2.188 9.894,-3.785c-1.578,18.75 4.856,33.468 4.856,33.468c0,0 -0.028,3.887 0.011,4.676" id="path88" fill-rule="nonzero" fill="#a3e1f9"/>
    <path d="m286.33582,449.04067c-17.743,-5.492 -27.875,5.071 -34.95,-8.652c-0.011,-4.676 -0.027,-39.258 0.036,-41.84c17,15.883 28.668,1.547 42.054,5.571c-0.886,4.464 -4.027,30.402 -7.14,44.921" id="path90" fill-rule="nonzero" fill="#ffffff"/>
    <path d="m246.45282,373.04867l0,-11.457l9.855,0l0,11.457l-9.855,0" id="path92" fill-rule="nonzero" fill="#fccc22"/>
    <path d="m251.44882,384.02967l4.898,-8.563l-9.929,-0.047l5.031,8.61z" id="path94" fill-rule="nonzero" fill="#fccc22"/>
    <path d="m168.49172,350.18967l0,0.062c-0.082,0.036 -0.0742,-0.007 0,-0.062" id="path96" fill-rule="nonzero" fill="#199445"/>
    <path d="m208.16782,294.03367c0,0 13.523,6.683 14.867,13.543c-4.192,4.031 -14.766,4.464 -14.766,4.464c0,0 12.145,9.243 11.633,15.954c-6.062,2.824 -16.859,1.183 -16.859,1.183c5.008,6.918 6.437,12.438 6.234,17.278c-6.301,1.054 -16.0429,-2.68 -16.0429,-2.68c0,0 3.2659,11.633 0.0469,17.668c-5.8321,1.562 -14.0664,-8.719 -14.0664,-8.719c0,0 -2.9258,12.715 -9.75,19.492c-6.8594,-6.777 -9.875,-19.492 -9.875,-19.492c0,0 -8.2071,10.281 -14.0703,8.719c-3.1797,-6.035 0.0781,-17.668 0.0781,-17.668c0,0 -9.7461,3.734 -16.0899,2.68c-0.1718,-4.84 1.2735,-10.36 6.2735,-17.278c0,0 -10.8125,1.641 -16.8516,-1.183c-0.5039,-6.711 11.6289,-15.954 11.6289,-15.954c0,0 -10.5859,-0.433 -14.7539,-4.464c1.3399,-6.86 14.8711,-13.543 14.8711,-13.543c0,0 -8.0508,-1.657 -12.9687,-7.223c3.125,-4.16 10.1796,-8.141 15.6992,-9.055c-4.7657,-3.836 -7.4336,-6.84 -8.6446,-9.086c7.7422,-6.261 23.9766,-7.14 40.2188,-2.086c0,-3.109 0.0469,-28.168 -3.7539,-39.644l16.3594,0c-3.7852,11.476 -3.7422,36.535 -3.7422,39.644c16.2383,-5.054 32.4995,-4.175 40.2105,2.086c-1.207,2.246 -3.863,5.25 -8.597,9.086c5.508,0.914 12.527,4.895 15.668,9.055c-4.934,5.566 -12.957,7.223 -12.957,7.223" id="path98" fill-rule="nonzero" fill="#73c82c"/>
    <path d="m193.38622,293.59167c1.5157,0.848 9.3746,3.242 13.3906,10.235c-4.016,3.902 -13.3906,4.054 -13.3906,4.054c0,0 8.3436,5.489 11.1606,13.715c-7.164,2.086 -14.5981,0 -14.5981,0c0,0 6.0981,8.649 6.8551,15.942c-6.8551,-0.75 -14.148,-4.356 -14.148,-4.356c2.0664,4.508 3.1133,10.887 2.2148,16.426c-3.414,-0.688 -6.543,-4.59 -8.4101,-7.027c-1.7422,5.554 -4.6954,7.3 -6.711,8.414c-3.3359,-4.903 -4.0156,-8.079 -3.6015,-14.809c1.1328,1.117 2.9218,2.891 5.8242,4.57c1.7851,-9.59 -1.6211,-16.578 -1.6211,-16.578c0,0 4.2265,2.766 9.8164,3.426c0.2266,-5.301 -1.7149,-10.781 -7.2891,-17.262c0,0 4.9063,2.961 10.5742,3.422c-0.9023,-7.461 -5.457,-12.441 -10.1484,-16.699c3.1367,1.469 8.5078,1.328 12.2227,0.141c-1.9258,-5.665 -6.3399,-8.504 -12.793,-12.051c4,0 8.1016,-0.535 10.4141,-2.09c-2.6055,-4.852 -8.9375,-7.156 -13.3164,-8.41c10.1367,-3.875 19.9531,-5.485 29.5742,-3.153c-0.676,2.868 -4.3164,6.356 -8.5782,8.793c3.8946,0.887 9.6872,2.106 14.7692,6.426c-3.285,3.289 -7.32,5.5 -12.2106,6.871" id="path100" fill-rule="nonzero" fill="#199948"/>
    <path d="m262.35882,96.30267c1.34,-1.562 2.258,-9.0623 -4.254,-9.6092c-11.172,-0.8672 -16.558,0.2539 -16.558,0.2539c0,0 15,1.7578 20.812,9.3553" id="path102" fill-rule="nonzero" fill="#df9824"/>
    <path d="m312.78082,325.99067c0.68,9.172 5.027,11.312 10.957,11.179c3.344,-0.07 8.395,-0.121 20.609,-0.023c-6.882,-0.613 -15.461,-4.223 -16.582,-13.172c-1.039,-8.32 -1.097,-37.121 -1.312,-49.398c-6.035,-0.243 -14.117,-0.012 -15.895,-0.469c0.883,12.746 1.559,42.715 2.223,51.883" id="path104" fill-rule="nonzero" fill="#df9824"/>
    <path d="m251.49582,373.04867l0,-11.457l2.984,0l0,11.457l-2.984,0" id="path106" fill-rule="nonzero" fill="#df9824"/>
    <path d="m254.47982,375.41967l-3.031,8.61l0,-8.563l3.031,-0.047z" id="path108" fill-rule="nonzero" fill="#df9824"/>
    <path d="m383.15182,39.77937c5.957,0 11.043,1.1797 14.688,3.4102l1.664,1.0039l-0.258,-5.918l-0.004,-31.043c0,-1.0078 -0.418,-1.8593 -1.266,-2.6406c-1.925,-1.94139 -5.883,-3.09373 -10.293,-2.97654l-272.9684,0c-4.4883,-0.11719 -8.5118,1.03515 -10.48051,3.00784c-0.80078,0.7812 -1.19531,1.6015 -1.19531,2.5586l-0.01562,25.2148l0.01562,5.625c0,-0.0781 -0.125,3.3789 -0.125,3.3789l-0.05469,1.7188l1.53125,-0.6953c3.69146,-1.7579 8.63676,-2.6446 14.70316,-2.6446l264.0585,0" id="path110" fill-rule="nonzero" fill="#0d3258"/>
    <path d="m383.15182,39.77937c5.957,0 11.043,1.1797 14.688,3.4102l1.664,1.0039l-0.258,-5.918l-0.004,-31.043c0,-1.0078 -0.418,-1.8593 -1.266,-2.6406c-1.925,-1.94139 -5.883,-3.09373 -10.293,-2.97654l-272.9684,0c-4.4883,-0.11719 -8.5118,1.03515 -10.48051,3.00784c-0.80078,0.7812 -1.19531,1.6015 -1.19531,2.5586l-0.01562,25.2148l0.01562,5.625c0,-0.0781 -0.125,3.3789 -0.125,3.3789l-0.05469,1.7188l1.53125,-0.6953c3.69146,-1.7579 8.63676,-2.6446 14.70316,-2.6446l264.0585,0z" id="path112" stroke-miterlimit="4" stroke-width="4.93307" stroke="#0d3258" fill="none"/>
    <path d="m364.81182,72.27157c2.699,-24.582 -0.25,-20.7422 0,-27.793c2.313,-0.5976 20.832,-4.1914 27.477,-0.6054c6.648,3.6015 10.375,5.3203 7.304,8.9218c-3.074,3.586 -18.402,13.3008 -24.542,14.3282c-6.133,1.0547 -8.567,3.3203 -10.239,5.1484" id="path114" fill-rule="nonzero" fill="#a3e1f9"/>
    <path d="m139.03472,71.47857c2.2969,-7.6757 -4.2383,-19.5 0.125,-28.0742c-3.7188,0.1367 -25.4375,-0.8789 -29.5547,0.6328c-4.32032,1.5899 -13.56251,4.7852 -4.35548,9.8164c9.21488,4.9766 32.50778,13.9414 33.78518,17.625" id="path116" fill-rule="nonzero" fill="#a3e1f9"/>
    <path d="m383.15182,39.77937c5.957,0 11.043,1.1797 14.688,3.4102l1.664,1.0039l-0.258,-5.918l-0.004,-31.043c0,-1.0078 -0.418,-1.8593 -1.266,-2.6406c-1.925,-1.94139 -5.883,-3.09373 -10.293,-2.97654l-272.9684,0c-4.4883,-0.11719 -8.5118,1.03515 -10.48051,3.00784c-0.80078,0.7812 -1.19531,1.6015 -1.19531,2.5586l-0.01562,25.2148l0.01562,5.625c0,-0.0781 -0.125,3.3789 -0.125,3.3789l-0.05469,1.7188l1.53125,-0.6953c3.69146,-1.7579 8.63676,-2.6446 14.70316,-2.6446l264.0585,0zm-16.91,8.9571c1.363,3.3281 2.027,6.1406 2.027,8.5937c0,1.9609 -0.367,3.5742 -0.711,5.125c-0.062,0.2734 -0.203,1.1641 -0.203,1.1641l-0.453,3.3086l2.09,-1.8243c3.816,-3.4101 8.445,-5.1562 12.172,-6.582c0.035,-0.0117 4.047,-1.6601 4.047,-1.6601c0.09,-0.0508 3.961,-2.1524 3.961,-2.1524c1.996,-1.3555 3.464,-2.9961 4.136,-4.5195l0.422,-0.9688l-0.972,-0.4062c-1.649,-0.6758 -4.653,-1.4844 -9.606,-1.4844l-17.5,0l0.59,1.4063zm-256.7462,-0.293l-1.0664,0.293l0.3594,1.0546c0.6758,1.8829 2.6758,4.0235 5.3633,5.6524c0.2187,0.1172 1.8672,0.957 1.8672,0.957c0.1289,0.0664 5.0312,2.1211 5.0312,2.1211c3.7695,1.4141 8.4063,3.1524 12.2383,6.582l2.1367,1.9024l-0.5156,-3.4649l-0.1367,-0.8515c-0.3516,-1.5156 -0.7579,-3.25 -0.7579,-5.3594c0,-2.5234 0.6524,-5.332 1.9844,-8.5937l0.5938,-1.4063l-17.5,0c-3.6992,0 -6.9297,0.3711 -9.5977,1.1133zm32.1992,32.8789c-6.1211,-8.3672 -15.7539,-12.4219 -24.2812,-16.0156c0.0234,0.0195 -4,-1.8477 -4,-1.8477c-0.168,-0.0469 -3.9258,-1.7461 -3.9258,-1.7461c-0.0625,-0.039 -1.4258,-0.6328 -1.4336,-0.6328l0,0c0,-0.0234 -2.1992,-1.2812 -2.1992,-1.2812c-6.32814,-3.4102 -10.4922,-7.8907 -10.4922,-18.8399l0.10938,-3.1914l0,-5.3711l0.00781,-25.2812c0,-2.9493 1.21484,-5.69536 3.51172,-7.93364c3.49609,-3.42578 9.26169,-5.32031 15.80469,-5.15234l272.7774,0c6.484,-0.16797 12.203,1.72656 15.715,5.15234c2.293,2.19922 3.496,4.98434 3.496,8.00004l0.031,25.4101l-0.004,5.4297c0,0.0391 0.121,3.8945 0.121,3.8945c0,9.4258 -2.886,13.0391 -7.863,16.0547c-0.109,0.0782 -4.906,3.125 -4.906,3.125c-0.016,0.0117 -5.656,2.5508 -5.656,2.5508c-0.137,0.0899 -0.454,0.2734 -0.454,0.2734c0.106,-0.0898 -3.226,1.4063 -3.226,1.4063c-8.492,3.5742 -18.141,7.6289 -24.274,15.9961c0,0 -0.328,0.4375 -0.695,0.9687c-0.141,-0.5468 -0.308,-1.1836 -0.308,-1.1836c-0.512,-1.9609 -0.758,-3.875 -0.758,-5.8906c0,-3.6719 0.867,-6.9531 1.879,-10.7695c1.168,-4.3164 2.539,-9.3828 2.765,-16.0664l0.035,-1.0508l-224.6871,0l0.0351,1.0508c0.2344,6.6719 1.6055,11.7305 2.7032,15.8008c1.0117,3.7812 1.9609,7.3086 1.9609,11.0351c0,1.9063 -0.25,3.8789 -0.7539,5.9024c0,0 -0.1484,0.5547 -0.3125,1.1875c-0.332,-0.4571 -0.7227,-0.9844 -0.7227,-0.9844" id="path118" fill-rule="nonzero" fill="#ffffff"/>
    <path d="m114.85112,30.84187l5.8398,0l4.0586,-11.3047c0.086,-0.2539 0.3047,-1.1562 0.6563,-2.7265c0.3867,1.5703 0.6367,2.4726 0.7383,2.7265l3.9609,11.3047l5.8711,0l-8.461,-20.2226l-4.1835,0l-8.4805,20.2226" id="path120" fill-rule="nonzero" fill="#ffffff"/>
    <path d="m139.15972,30.84187l0,-20.2226l5.5937,0l0,20.2226l-5.5937,0" id="path122" fill-rule="nonzero" fill="#ffffff"/>
    <path d="m161.40582,18.15827l-2.0586,6.6485c-0.086,0.3437 -0.3321,1.25 -0.6797,2.7343c-0.3633,-1.4843 -0.6211,-2.3906 -0.707,-2.7343l-2.0469,-6.6485l5.4922,0zm-6.2188,12.6836l6.8985,0l6.9726,-20.2226l-5.4805,0l-1.0039,3.6328l-7.8203,0l-1.0664,-3.6328l-5.4687,0l6.9687,20.2226" id="path124" fill-rule="nonzero" fill="#ffffff"/>
    <path d="m179.95262,30.84187l5.8633,0l4.043,-11.3047c0.0937,-0.2539 0.2891,-1.1562 0.6758,-2.7265c0.3515,1.5703 0.6172,2.4726 0.6914,2.7265l4.0234,11.3047l5.8363,0l-8.4574,-20.2226l-4.1836,0l-8.4922,20.2226" id="path126" fill-rule="nonzero" fill="#ffffff"/>
    <path d="m204.14782,30.84187l12.375,0l0,-4.4531l-7.019,0l0,-3.5039l6.617,0l0,-4.3047l-6.617,0l0,-3.4492l7.019,0l0,-4.5117l-12.375,0l0,20.2226" id="path128" fill-rule="nonzero" fill="#ffffff"/>
    <path d="m227.76882,21.27547c2.297,0 3.41,0.7305 3.41,2.5274c0,2.1093 -1.043,2.7539 -3.339,2.7539l-1.11,0l0,-5.2813l1.039,0zm-6.207,9.5664l5.766,0c0.125,0 0.226,0 0.34,0c2.789,0 4.945,-0.0273 6.687,-1.375c1.446,-1.1328 2.238,-2.8515 2.238,-4.9531c0,-3.1133 -1.574,-5.1133 -4.507,-5.75l5.507,-8.1445l-6.222,0l-4.641,7.9218l0,-7.9218l-5.168,0l0,20.2226" id="path130" fill-rule="nonzero" fill="#ffffff"/>
    <path d="m241.22582,30.84187l0,-20.2226l5.578,0l0,20.2226l-5.578,0" id="path132" fill-rule="nonzero" fill="#ffffff"/>
    <path d="m255.55782,26.05677l-4.504,0l0,4.7851l14.528,0l0,-4.7851l-4.528,0l0,-15.4375l-5.496,0l0,15.4375" id="path134" fill-rule="nonzero" fill="#ffffff"/>
    <path d="m280.49582,18.15827l-2.067,6.6485c-0.082,0.3437 -0.308,1.25 -0.679,2.7343c-0.356,-1.4843 -0.625,-2.3906 -0.715,-2.7343l-2.027,-6.6485l5.488,0zm-6.219,12.6836l6.875,0l6.984,-20.2226l-5.46,0l-1.04,3.6328l-7.812,0l-1.035,-3.6328l-5.492,0l6.98,20.2226" id="path136" fill-rule="nonzero" fill="#ffffff"/>
    <path d="m297.19882,14.40047c1.5,0 2.512,0.8672 2.512,2.0664c0,1.6211 -1.118,2.1133 -3.407,2.6992c-3.621,0.9454 -5.398,2.4297 -5.398,5.5664c0,3.7579 2.727,6.5586 6.961,6.5586c2.266,0 4.242,-0.5859 5.973,-1.7929l-1.715,-3.9492c-1.27,1.0664 -2.617,1.6054 -3.864,1.6054c-1.351,0 -2.25,-0.7344 -2.25,-1.6836c0,-1.4648 1.422,-1.7656 3.231,-2.2539c3.578,-0.957 5.574,-2.2656 5.574,-6.0156c0,-4.168 -3.004,-7.1094 -7.734,-7.1094c-2.856,0 -5.02,0.8985 -7.18,2.9688l2.473,4.082c1.625,-1.8555 3.218,-2.7422 4.824,-2.7422" id="path138" fill-rule="nonzero" fill="#ffffff"/>
    <path d="m316.85482,30.84187l5.863,0l4.051,-11.3047c0.078,-0.2539 0.305,-1.1562 0.649,-2.7265c0.383,1.5703 0.64,2.4726 0.718,2.7265l4.004,11.3047l5.864,0l-8.481,-20.2226l-4.176,0l-8.492,20.2226" id="path140" fill-rule="nonzero" fill="#ffffff"/>
    <path d="m341.19082,30.84187l0,-20.2226l5.567,0l0,20.2226l-5.567,0" id="path142" fill-rule="nonzero" fill="#ffffff"/>
    <path d="m355.50782,26.05677l-4.481,0l0,4.7851l14.508,0l0,-4.7851l-4.527,0l0,-15.4375l-5.5,0l0,15.4375" id="path144" fill-rule="nonzero" fill="#ffffff"/>
    <path d="m380.44082,18.15827l-2.066,6.6485c-0.078,0.3437 -0.297,1.25 -0.657,2.7343c-0.39,-1.4843 -0.617,-2.3906 -0.707,-2.7343l-2.023,-6.6485l5.453,0zm-6.207,12.6836l6.899,0l6.984,-20.2226l-5.496,0l-1.008,3.6328l-7.82,0l-1.063,-3.6328l-5.476,0l6.98,20.2226" id="path146" fill-rule="nonzero" fill="#ffffff"/>
   </g>
  </g>
 </g>
</svg>