<?xml version="1.0" encoding="utf-8"?>
<!-- Generator: Adobe Illustrator 24.3.0, SVG Export Plug-In . SVG Version: 6.00 Build 0)  -->
<svg version="1.1" id="Layer_1" xmlns="http://www.w3.org/2000/svg" xmlns:xlink="http://www.w3.org/1999/xlink" x="0px" y="0px"
	 viewBox="0 0 208.6 29.7" style="enable-background:new 0 0 208.6 29.7;" xml:space="preserve">
<style type="text/css">
	.st0{fill:none;}
	.st1{fill:#FFFFFF;}
	.st2{fill:#FFFFFF;stroke:#FFFFFF;stroke-miterlimit:10;}
	.st3{fill:#0D3258;}
	.st4{fill:#A3E1F9;}
	.st5{fill:#FCCC22;}
	.st6{fill:#DF9824;}
	.st7{fill:#EF2F2A;}
	.st8{fill:#409ADB;}
	.st9{fill:#199445;}
	.st10{fill:#73C82C;}
	.st11{fill:#199948;}
	.st12{fill:none;stroke:#0D3258;stroke-width:0.66;stroke-miterlimit:10;}
</style>
<g id="Layer_2_1_">
	<g id="Layer_1-2">
		<g id="Layer_2-2">
			<g id="svg2">
				<line class="st0" x1="98" y1="0" x2="98" y2="29"/>
				<path class="st1" d="M107.6,2.6c0,0.3,0.1,0.4,0.1,0.5v0.6c0,0.2,0,0.3,0,0.5h-0.1h-0.1c-0.1-0.5-0.3-0.9-0.7-1.3
					c-0.3-0.3-0.8-0.4-1.2-0.4c-0.4,0-0.9,0.1-1.2,0.4c-0.3,0.2-0.5,0.6-0.5,1c0,0.3,0.1,0.6,0.3,0.8c0.5,0.4,1.1,0.7,1.7,1
					c0.5,0.2,1,0.5,1.4,0.9c0.3,0.2,0.5,0.5,0.7,0.8c0.2,0.3,0.2,0.7,0.2,1c0,0.5-0.1,0.9-0.3,1.3c-0.2,0.4-0.6,0.7-0.9,0.9
					c-0.5,0.2-1,0.3-1.6,0.3c-0.6,0-1.1-0.1-1.6-0.3c-0.2-0.1-0.4-0.1-0.6-0.3c-0.1-0.1-0.1-0.1-0.1-0.2c0,0,0-0.1,0-0.2
					c0.1-0.5,0.1-0.9,0.1-1.2c0-0.1,0-0.2,0-0.4c0,0,0.1,0,0.1,0c0,0,0.1,0,0.1,0c0,0,0,0.1,0.1,0.2c0.1,0.5,0.3,1,0.7,1.4
					c0.4,0.4,0.9,0.6,1.5,0.6c0.3,0,0.6-0.1,0.9-0.2c0.3-0.1,0.5-0.3,0.7-0.6c0.2-0.2,0.2-0.5,0.2-0.8c0-0.3-0.1-0.7-0.4-0.9
					c-0.4-0.4-0.9-0.8-1.5-1c-0.5-0.2-1-0.5-1.4-0.8c-0.3-0.2-0.6-0.6-0.8-0.9c-0.1-0.3-0.2-0.6-0.2-0.9c0-0.6,0.2-1.1,0.7-1.5
					c0.5-0.4,1.2-0.6,1.9-0.6c0.4,0,0.7,0,1.1,0.1C107.1,2.4,107.4,2.5,107.6,2.6z"/>
				<path class="st1" d="M113.8,9.3v0.4c-0.3,0.3-0.6,0.6-1,0.7c-0.4,0.1-0.7,0.2-1.1,0.2c-0.5,0-0.9-0.1-1.3-0.4
					c-0.4-0.2-0.7-0.6-0.9-1c-0.2-0.4-0.3-0.9-0.3-1.3c0-0.5,0.1-0.9,0.4-1.3c0.2-0.4,0.6-0.8,1-1c0.5-0.2,1-0.3,1.5-0.3
					c0.5,0,0.9,0.1,1.3,0.3c0.2,0.1,0.3,0.3,0.3,0.5c0,0.1,0,0.3-0.1,0.3c-0.1,0.1-0.2,0.1-0.3,0.1c-0.3,0-0.5-0.2-0.7-0.4
					c-0.1-0.1-0.3-0.2-0.4-0.3c-0.1-0.1-0.3-0.1-0.4-0.1c-0.4,0-0.7,0.2-0.9,0.5c-0.4,0.5-0.5,1.1-0.5,1.7c0,0.6,0.2,1.2,0.5,1.6
					c0.3,0.4,0.8,0.6,1.2,0.6c0.3,0,0.6-0.1,0.9-0.2C113.3,9.8,113.6,9.6,113.8,9.3z"/>
				<path class="st1" d="M114.3,10.3c0.3,0,0.6-0.1,0.9-0.2c0.1-0.1,0.1-0.1,0.1-0.2V8.7V6.8V5.7V5c0-1,0-1.5,0-1.7
					c0-0.1,0-0.2-0.1-0.3c-0.3-0.2-0.5-0.3-0.8-0.3l0,0c0,0,0-0.1,0-0.1h0.2h0.2c0.4-0.1,0.8-0.2,1.1-0.4h0.3c0,0.1,0,0.5,0,1.1V5
					v1.3c0,0.1,0,0.2,0,0.2c0.2-0.2,0.4-0.4,0.6-0.6c0.2-0.2,0.4-0.3,0.7-0.4c0.3-0.1,0.5-0.2,0.8-0.2c0.5,0,1,0.2,1.3,0.7
					c0.2,0.3,0.3,0.7,0.3,1.1v0.7v0.4v0.6c0,0.5,0,0.8,0,0.9s0,0.3,0,0.4l0.4,0.1c0.2,0.1,0.4,0.1,0.6,0.1v0.2h-1.3h-0.6h-0.4H118
					c0,0,0-0.1,0-0.1v-0.1c0.1-0.1,0.2-0.1,0.3-0.1l0.4-0.1c0,0,0.1-0.1,0.1-0.1c0-0.1,0-0.6,0.1-1.6V7.9c0-0.4,0-0.8-0.1-1.2
					c-0.1-0.2-0.2-0.4-0.4-0.5c-0.2-0.1-0.5-0.2-0.7-0.2c-0.2,0-0.4,0-0.7,0.2c-0.2,0.1-0.4,0.2-0.5,0.4c-0.2,0.1-0.3,0.3-0.4,0.5
					C116,7,116,7.2,116,7.3v0.4v0.5c0,0,0,0.3,0,0.8v0.9c0,0,0,0.1,0,0.1l0.9,0.2l0.2,0.1v0.1c0,0,0,0.1,0,0.1h-1.9h-0.8h-0.2l0,0
					C114.2,10.4,114.2,10.4,114.3,10.3z"/>
				<path class="st1" d="M121.1,7.9c0-0.3,0.1-0.6,0.2-0.9c0.1-0.3,0.3-0.6,0.6-0.9c0.2-0.2,0.5-0.4,0.8-0.6
					c0.4-0.2,0.9-0.3,1.4-0.3c0.8,0,1.5,0.3,2,0.8c0.5,0.5,0.8,1.2,0.8,2c0,0.7-0.3,1.3-0.8,1.8c-0.6,0.5-1.3,0.8-2.1,0.8
					c-0.5,0-1-0.1-1.5-0.4c-0.4-0.2-0.7-0.5-0.9-0.9C121.3,8.9,121.1,8.4,121.1,7.9z M123.9,10.4c0.3,0,0.7-0.1,0.9-0.3
					c0.3-0.2,0.6-0.5,0.7-0.8c0.2-0.4,0.3-0.9,0.3-1.3c0-0.4-0.1-0.8-0.2-1.2c-0.1-0.4-0.3-0.7-0.6-1c-0.3-0.2-0.6-0.3-1-0.3
					c-0.3,0-0.6,0.1-0.9,0.2c-0.3,0.2-0.6,0.4-0.7,0.8c-0.2,0.5-0.3,1-0.3,1.6c0,0.6,0.1,1.2,0.5,1.8
					C123,10.2,123.4,10.4,123.9,10.4z"/>
				<path class="st1" d="M127.8,7.9c0-1,0.6-1.9,1.5-2.4c0.4-0.2,0.9-0.3,1.4-0.3c0.8,0,1.5,0.3,2,0.8c0.5,0.5,0.8,1.2,0.8,1.9
					c0,0.7-0.3,1.4-0.8,1.8c-1,0.9-2.4,1.1-3.6,0.4c-0.4-0.2-0.7-0.5-0.9-0.9C127.9,8.9,127.7,8.4,127.8,7.9z M130.6,10.4
					c0.3,0,0.7-0.1,0.9-0.3c0.3-0.2,0.6-0.5,0.7-0.8c0.2-0.4,0.3-0.9,0.3-1.3c0-0.4-0.1-0.8-0.2-1.2c-0.1-0.4-0.3-0.7-0.6-1
					c-0.3-0.2-0.6-0.3-1-0.3c-0.3,0-0.6,0.1-0.9,0.2c-0.3,0.2-0.6,0.4-0.7,0.8c-0.2,0.5-0.3,1-0.3,1.6c0,0.6,0.1,1.2,0.5,1.8
					C129.6,10.2,130.1,10.4,130.6,10.4z"/>
				<path class="st1" d="M134.2,2.6V2.5l0.4-0.1c0.2-0.1,0.5-0.2,1-0.3h0.3v0.3c0,3.5,0,5.6,0,6.2c0,0.4,0,0.6,0,0.6
					c0,0.3,0,0.5,0,0.8c0.1,0.1,0.2,0.1,0.5,0.2c0.2,0,0.3,0,0.5,0.1c0,0,0,0.1,0.1,0.1c0,0.1,0,0.1-0.1,0.1c0,0,0,0,0,0h-0.7h-0.8
					l-1.1,0.1c0,0-0.1,0-0.1,0c0,0,0-0.1,0-0.1c0,0,0-0.1,0-0.1c0.2,0,0.3-0.1,0.5-0.1c0.2,0,0.3,0,0.5-0.1c0-0.1,0.1-0.1,0.1-0.2
					c0-0.1,0-0.6,0-1.3V7.1V5.6V4.1V3.3c0-0.1,0-0.2-0.1-0.3c-0.1-0.1-0.2-0.2-0.3-0.2C134.5,2.7,134.3,2.7,134.2,2.6z"/>
				<path class="st1" d="M140.6,7.9c0-0.3,0.1-0.6,0.2-0.9c0.1-0.3,0.3-0.6,0.6-0.9c0.2-0.2,0.5-0.4,0.8-0.6
					c0.4-0.2,0.9-0.3,1.4-0.3c0.8,0,1.5,0.3,2,0.8c0.5,0.5,0.8,1.2,0.8,2c0,0.7-0.3,1.4-0.8,1.8c-0.6,0.5-1.3,0.8-2.1,0.8
					c-0.5,0-1-0.1-1.5-0.4c-0.4-0.2-0.7-0.5-0.9-0.9C140.7,8.9,140.6,8.4,140.6,7.9z M143.4,10.4c0.3,0,0.7-0.1,0.9-0.3
					c0.3-0.2,0.6-0.5,0.7-0.8c0.2-0.4,0.3-0.9,0.3-1.3c0-0.4-0.1-0.8-0.2-1.2c-0.1-0.4-0.3-0.7-0.6-1c-0.3-0.2-0.6-0.3-1-0.3
					c-0.3,0-0.6,0.1-0.9,0.2c-0.3,0.2-0.6,0.4-0.7,0.8c-0.2,0.5-0.3,1-0.3,1.6c0,0.6,0.1,1.2,0.5,1.8
					C142.4,10.2,142.9,10.4,143.4,10.4z"/>
				<path class="st1" d="M149.1,5.5h1.7c0,0.1,0,0.1,0,0.2c0,0.1,0,0.1,0,0.2c-0.1,0-0.2,0-0.3,0h-0.2c-0.4,0-0.7,0-1.1,0.1
					c0,0.1,0,0.2,0,0.2c0,0,0,0.1,0,0.1c0,0.7,0,1.1,0,1.2v1.7c0,0.2,0,0.4,0.1,0.6c0.1,0.1,0.1,0.2,0.3,0.2
					c0.2,0.1,0.4,0.1,0.6,0.1l0.5,0.1c0,0.1,0,0.1,0,0.2h-0.1h-0.8h-0.5l-1.6,0.1h-0.2v-0.2h0.1c0.2,0,0.5-0.1,0.7-0.2
					c0-0.1,0.1-0.1,0.1-0.2c0-0.1,0-0.3,0-0.7c0-1.2,0-2.2,0-2.9c-0.2,0-0.3-0.1-0.5-0.1h-0.4V6.1c0-0.1,0-0.1,0.1-0.1l0.5-0.3
					c0.1,0,0.2-0.1,0.3-0.2c0-0.1,0.1-0.2,0.1-0.3c0-0.1,0-0.2,0-0.3c0-0.3,0.1-0.5,0.1-0.8c0.1-0.3,0.2-0.6,0.4-0.8
					c0.2-0.3,0.4-0.5,0.6-0.7c0.2-0.2,0.4-0.3,0.6-0.3C150.4,2,150.7,2,151,2c0.3,0,0.6,0,0.9,0.2c0.1,0.1,0.2,0.2,0.2,0.3
					c0,0.1-0.1,0.2-0.1,0.3c-0.1,0.1-0.2,0.1-0.3,0.1c-0.2,0-0.4,0-0.5-0.1l-0.6-0.2c-0.1,0-0.2,0-0.2,0c-0.2,0-0.5,0.1-0.6,0.2
					c-0.2,0.1-0.3,0.3-0.4,0.5c-0.1,0.5-0.1,1-0.1,1.5C149.1,5.1,149.1,5.3,149.1,5.5z"/>
				<path class="st1" d="M163.4,2.7c0,0.3,0.1,0.7,0.1,1V4h-0.2c-0.2-0.5-0.5-0.9-0.9-1.1c-0.7-0.4-1.5-0.5-2.3-0.3
					c-0.4,0.1-0.7,0.3-1,0.5c-0.3,0.2-0.5,0.5-0.7,0.8c-0.2,0.4-0.4,0.7-0.5,1.2c-0.1,0.5-0.2,0.9-0.2,1.4c0,0.8,0.1,1.5,0.4,2.2
					c0.2,0.5,0.6,1,1.1,1.3c0.4,0.2,0.9,0.4,1.4,0.4h0.3c0.2,0,0.5-0.1,0.7-0.1c0.3-0.1,0.5-0.2,0.8-0.3c0.2-0.1,0.4-0.3,0.6-0.5
					c0.2-0.2,0.4-0.5,0.5-0.8h0.1c0,0,0.1,0,0.1,0c0,0.1,0,0.2,0,0.2c-0.2,0.7-0.3,1.2-0.4,1.5l-0.2,0.1c-0.6,0.2-1.3,0.3-2,0.2
					c-0.5,0-1,0-1.5-0.1c-0.4-0.1-0.7-0.2-1.1-0.4c-0.8-0.4-1.5-1.1-1.8-2c-0.2-0.5-0.3-1-0.3-1.6c0-0.5,0.1-1,0.2-1.4
					c0.2-0.4,0.4-0.9,0.7-1.2c0.3-0.4,0.7-0.7,1.1-1c0.4-0.3,0.9-0.5,1.4-0.6c0.5-0.1,1-0.1,1.5-0.1c0.4,0,0.9,0.1,1.3,0.2
					C162.9,2.4,163.2,2.5,163.4,2.7z"/>
				<path class="st1" d="M164.4,10.3c0.3,0,0.6-0.1,0.9-0.2c0.1-0.1,0.1-0.1,0.1-0.2V5.7V5c0-1,0-1.5,0-1.7c0-0.1,0-0.2-0.1-0.3
					c-0.3-0.2-0.5-0.3-0.8-0.3l0,0c0,0,0-0.1,0-0.1h0.2h0.2c0.4-0.1,0.8-0.3,1.1-0.5h0.3c0,0.1,0,0.5,0,1.1V5v1.3c0,0.1,0,0.2,0,0.2
					c0.2-0.2,0.4-0.4,0.6-0.6c0.2-0.2,0.5-0.3,0.7-0.4c0.2-0.1,0.5-0.2,0.8-0.2c0.5,0,1,0.2,1.3,0.7c0.2,0.3,0.3,0.7,0.3,1.1v0.7
					v0.4v0.6c0,0.5,0,0.8,0,0.9s0,0.3,0,0.4l0.4,0.1c0.2,0.1,0.4,0.1,0.6,0.1v0.2h-1.4h-0.6h-0.4h-0.1c0,0,0-0.1,0-0.1v-0.1
					c0.1-0.1,0.2-0.1,0.3-0.1l0.4-0.1c0,0,0.1-0.1,0.1-0.1c0-0.1,0-0.6,0.1-1.6V7.9c0-0.4,0-0.8-0.1-1.2c-0.1-0.2-0.2-0.4-0.4-0.5
					c-0.2-0.1-0.5-0.2-0.7-0.2c-0.2,0-0.4,0-0.6,0.2c-0.2,0.1-0.4,0.2-0.5,0.4c-0.2,0.1-0.3,0.3-0.4,0.5c-0.1,0.1-0.1,0.3-0.1,0.4
					v0.9c0,0,0,0.3,0,0.8v0.9c0,0.1,0,0.1,0,0.1l0.9,0.2l0.2,0.1v0.1c0,0,0,0.1,0,0.1h-1.9h-0.8h-0.2l0,0
					C164.4,10.4,164.4,10.4,164.4,10.3z"/>
				<path class="st1" d="M175.8,7.1h-2.5h-0.5c-0.2,0-0.4,0-0.6,0c0,0.1,0,0.2-0.1,0.3v0.4c0,0.3,0.1,0.7,0.2,1
					c0.1,0.3,0.4,0.6,0.7,0.9c0.3,0.2,0.7,0.3,1.1,0.3c0.2,0,0.4,0,0.6-0.1c0.2-0.1,0.4-0.2,0.6-0.3l0.5-0.4v0.3c0,0,0,0.1,0,0.1
					c-0.2,0.3-0.4,0.5-0.7,0.6c-0.3,0.2-0.6,0.3-0.9,0.4c-0.2,0-0.5,0.1-0.7,0.1c-0.3,0-0.6-0.1-0.9-0.2c-0.4-0.2-0.8-0.5-1-0.9
					c-0.3-0.5-0.4-1-0.4-1.5c0-0.2,0-0.5,0.1-0.7c0.1-0.3,0.2-0.6,0.4-0.9c0.1-0.2,0.3-0.4,0.4-0.6c0.2-0.2,0.4-0.3,0.7-0.4
					c0.3-0.1,0.7-0.2,1-0.2c0.7,0,1.4,0.4,1.7,1C175.8,6.5,175.9,6.8,175.8,7.1L175.8,7.1z M172.3,6.9h0.3c0.2,0,0.9,0,1.9-0.1
					c0.1,0,0.2,0,0.3,0c0.1-0.1,0.1-0.1,0.1-0.2c0-0.2-0.1-0.3-0.1-0.4c-0.1-0.2-0.2-0.3-0.4-0.4c-0.2-0.1-0.4-0.1-0.6-0.1
					c-0.5,0-0.9,0.2-1.2,0.6C172.5,6.4,172.3,6.6,172.3,6.9z"/>
				<path class="st1" d="M176.5,10.2c0.1,0,0.2-0.1,0.3-0.1c0.1,0,0.3,0,0.4-0.1c0.1-0.1,0.1-0.2,0.1-0.3c0-0.5,0-1.1,0-1.6
					c0-0.6,0-1.2-0.1-1.8c-0.1-0.1-0.2-0.1-0.4-0.1l-0.3-0.1V6c0.2-0.1,0.4-0.2,0.6-0.3c0.2-0.2,0.5-0.4,0.6-0.7h0.2
					c0,0,0.1,0,0.1,0v0.7c0,0.2,0,0.3,0,0.5c0.4-0.3,0.8-0.6,1.2-0.9c0.3-0.1,0.5-0.2,0.8-0.2c0.3,0,0.6,0.1,0.9,0.2
					c0.3,0.2,0.5,0.5,0.6,0.8c0.3-0.3,0.6-0.6,1-0.8c0.3-0.1,0.6-0.2,0.9-0.2c0.4,0,0.9,0.2,1.2,0.5c0.3,0.4,0.5,0.9,0.5,1.4v2.6
					c0,0.1,0,0.3,0.1,0.4l0.4,0.1c0.1,0,0.2,0,0.2,0.1c0,0,0,0.1,0,0.1c0,0.1,0,0.1,0,0.2l0,0h-0.6H185h-0.9h-0.6v-0.1
					c0,0,0-0.1,0-0.1c0.2-0.1,0.3-0.1,0.5-0.1c0.1,0,0.3-0.1,0.4-0.2c0.1-0.3,0.1-0.7,0.1-1c0-1.2,0-2-0.1-2.2
					c0-0.3-0.2-0.6-0.4-0.8c-0.2-0.2-0.5-0.3-0.8-0.3c-0.3,0-0.5,0.1-0.7,0.2c-0.3,0.2-0.5,0.4-0.7,0.6v1.2v0.8c0,0.8,0,1.2,0,1.3
					c0,0.1,0,0.2,0.1,0.2c0.2,0.1,0.3,0.1,0.5,0.1c0.1,0,0.2,0,0.3,0c0.1,0,0.1,0.1,0.1,0.2c0,0,0,0.1-0.1,0.1h-2.8c0,0,0-0.1,0-0.1
					v-0.1c0.2-0.1,0.3-0.1,0.5-0.1c0.1,0,0.3-0.1,0.4-0.1l0.1-0.1c0-0.2,0-0.3,0-0.5V8.6V7.4c0-0.4-0.1-0.8-0.3-1.1
					c-0.2-0.2-0.5-0.4-0.8-0.4c-0.3,0-0.6,0.1-0.9,0.2c-0.3,0.1-0.5,0.3-0.8,0.6c0,0.1,0,0.2,0,0.3v2.1c0,0.3,0,0.5,0.1,0.8
					c0.1,0.1,0.2,0.1,0.3,0.1c0.2,0,0.4,0.1,0.5,0.1c0,0,0.1,0.1,0.1,0.1c0,0,0,0.1,0,0.1h-1h-1h-0.7c0,0,0,0,0-0.1
					C176.3,10.4,176.5,10.3,176.5,10.2z"/>
				<path class="st1" d="M186.6,6V5.8c0.1,0,0.3-0.1,0.4-0.1c0.2-0.1,0.3-0.2,0.5-0.3c0.2-0.1,0.3-0.3,0.4-0.5h0.2
					c0,0.2,0,0.4,0,0.4c0,0.1,0,0.1,0,0.3v2.2v1.9c0,0.1,0,0.2,0.1,0.3c0.1,0.1,0.3,0.2,0.5,0.2l0.4,0.1c0,0,0,0.1,0,0.1
					c0,0,0,0.1,0,0.1h-0.6l-0.7-0.1h-1c-0.1,0-0.2,0-0.4,0h-0.1c0,0,0-0.1,0-0.1c0-0.1,0-0.1,0.1-0.1l0.6-0.1c0.1,0,0.2-0.1,0.3-0.1
					c0.1-0.1,0.1-0.3,0.1-0.4c0-0.3,0-1.2,0-2.7c0-0.2,0-0.4,0-0.5c0-0.1-0.1-0.1-0.2-0.2C187.1,6.1,186.8,6,186.6,6z M187.2,2.7
					c0-0.1,0.1-0.3,0.2-0.4c0.1-0.1,0.2-0.2,0.4-0.2c0.2,0,0.3,0.1,0.4,0.2c0.1,0.1,0.2,0.2,0.2,0.4c0,0.1-0.1,0.3-0.2,0.4
					c-0.1,0.1-0.3,0.2-0.4,0.2c-0.1,0-0.3-0.1-0.4-0.2C187.2,3,187.1,2.8,187.2,2.7L187.2,2.7z"/>
				<path class="st1" d="M190.1,8.9c0.1,0.3,0.2,0.5,0.4,0.8c0.1,0.2,0.3,0.4,0.6,0.6c0.2,0.1,0.5,0.2,0.7,0.2
					c0.3,0,0.5-0.1,0.7-0.3c0.2-0.1,0.2-0.3,0.2-0.6c0-0.3-0.1-0.6-0.3-0.8c-0.3-0.3-0.7-0.5-1.1-0.7c-0.4-0.1-0.8-0.4-1.1-0.7
					c-0.2-0.2-0.3-0.5-0.3-0.8c0-0.3,0.1-0.5,0.2-0.8c0.2-0.2,0.4-0.4,0.6-0.5c0.2-0.1,0.5-0.2,0.8-0.2c0.3,0,0.5,0,0.8,0.1
					c0.2,0,0.4,0.1,0.6,0.2c0.1,0.3,0.1,0.7,0.1,1v0.2h-0.2c-0.1-0.3-0.3-0.6-0.6-0.8c-0.2-0.2-0.5-0.3-0.8-0.3
					c-0.2,0-0.5,0.1-0.6,0.2c-0.2,0.2-0.2,0.4-0.2,0.6c0,0.2,0.1,0.4,0.2,0.5c0.3,0.2,0.6,0.4,0.9,0.5c0.4,0.1,0.7,0.3,1,0.5
					c0.2,0.1,0.4,0.4,0.5,0.6c0.1,0.2,0.2,0.4,0.2,0.7c0,0.3-0.1,0.6-0.3,0.8c-0.2,0.2-0.4,0.4-0.7,0.5c-0.2,0.1-0.5,0.1-0.8,0.1
					c-0.5,0-1-0.1-1.5-0.3c0,0-0.1-0.1-0.1-0.2c0-0.1,0-0.1,0-0.2c-0.1-0.6-0.1-0.9-0.1-1c0,0,0-0.1,0-0.1
					C189.9,8.9,190.1,8.9,190.1,8.9z"/>
				<path class="st1" d="M195.8,4.2h0.2v0.6v0.8h0.1c0.1,0,0.3,0,0.6,0h0.6h0.4c0,0.1,0,0.1,0,0.2c0,0.1,0,0.2,0,0.3h-0.1h-1h-0.5
					H196c0,0.1,0,0.2,0,0.4v1v1.7c0,0.3,0,0.6,0.2,0.9c0.1,0.2,0.3,0.2,0.5,0.2c0.2,0,0.4,0,0.6-0.1c0.1,0,0.3-0.1,0.4-0.2h0.1
					c0,0,0.1,0,0.1,0c0,0,0,0.1,0,0.1l0,0c-0.2,0.2-0.4,0.3-0.6,0.4c-0.3,0.1-0.6,0.1-0.9,0.1c-0.2,0-0.5-0.1-0.7-0.2
					c-0.2-0.1-0.3-0.3-0.3-0.4c-0.1-0.4-0.1-0.8-0.1-1.1V7.3V6.5c0-0.1,0-0.2,0-0.4h-0.7c0,0-0.1,0-0.1,0c0,0,0-0.1,0-0.1
					c0,0,0-0.1,0-0.1c0.1-0.1,0.2-0.1,0.3-0.2c0.1-0.1,0.3-0.2,0.4-0.3c0.1-0.1,0.3-0.3,0.4-0.4c0.1-0.1,0.1-0.2,0.2-0.5
					C195.7,4.4,195.7,4.3,195.8,4.2z"/>
				<path class="st1" d="M198,10.5L198,10.5c0-0.1,0-0.2,0.1-0.2l0.4-0.1l0.5-0.1c0,0,0-0.1,0-0.1c0-0.2,0-0.3,0-0.5
					c0-1.4,0-2.3,0-2.5c0-0.1,0-0.3-0.1-0.4c-0.1-0.1-0.3-0.1-0.4-0.1c-0.1,0-0.2,0-0.4-0.1V6.2c0.3-0.1,0.6-0.3,0.9-0.5
					c0.3-0.2,0.5-0.4,0.6-0.7h0.2c0,0.2,0,0.7,0,1.4v0.1c0,0,0,0.1,0,0.1c0.2-0.3,0.4-0.6,0.6-0.8l0.1-0.2c0.1-0.1,0.1-0.1,0.2-0.2
					c0.2-0.1,0.4-0.2,0.7-0.3c0.2,0,0.3,0.1,0.5,0.2c0.1,0.1,0.2,0.3,0.2,0.5c0,0.1,0,0.3-0.1,0.3c-0.1,0.1-0.2,0.2-0.4,0.2
					c-0.1,0-0.3-0.1-0.4-0.1s-0.3-0.1-0.4-0.1c-0.1,0-0.2,0-0.2,0.1c-0.2,0.2-0.3,0.4-0.4,0.6c-0.1,0.2-0.2,0.4-0.2,0.6v1v1.3
					c0,0.1,0,0.2,0,0.3c0,0,0.1,0.1,0.1,0.1c0.5,0,0.7,0.1,0.8,0.1h0.1c0.1,0,0.3,0,0.4,0.1c0,0,0,0.1,0.1,0.1c0,0,0,0.1-0.1,0.1h-2
					H199L198,10.5z"/>
				<path class="st1" d="M202.6,5.5h0.2h0.7h0.5h0.4c0.2,0,0.4,0,0.6,0c0,0,0,0.1,0,0.1l0,0c-0.1,0.1-0.3,0.1-0.4,0.1
					c-0.2,0-0.4,0.1-0.6,0.1v0.1c0,0.1,0,0.1,0.1,0.2c0,0,0.1,0.1,0.1,0.2c0.1,0.3,0.3,0.9,0.6,1.8c0.2,0.6,0.4,1.2,0.6,1.7
					c0.1-0.2,0.2-0.6,0.4-1l0.5-1.5c0.1-0.3,0.2-0.7,0.3-1c0-0.1,0-0.2,0-0.3c0-0.1,0-0.1-0.1-0.2c-0.1-0.1-0.2-0.1-0.3-0.1
					l-0.5-0.1c0,0,0-0.1,0-0.1h0.1h2.1c0,0,0.1,0.1,0.1,0.1c0,0,0,0.1-0.1,0.1h-0.1c-0.2,0-0.4,0.1-0.6,0.2
					c-0.1,0.1-0.2,0.2-0.2,0.3c0,0.1,0,0.2-0.1,0.2L207,6.6c0,0.1-0.1,0.3-0.2,0.4l-0.1,0.2l0,0l-1.1,2.8l-0.8,2.1
					c-0.1,0.1-0.1,0.3-0.2,0.4c-0.1,0.2-0.2,0.3-0.3,0.5c-0.1,0.1-0.2,0.2-0.3,0.3l-0.3,0.1c-0.1,0-0.1,0-0.2,0
					c-0.1,0-0.3,0-0.4-0.1c-0.1-0.1-0.1-0.2-0.1-0.3c0-0.1,0.1-0.3,0.2-0.4l0.1-0.1h0.1c0.4,0.1,0.6,0.1,0.7,0.1
					c0.1,0,0.2-0.1,0.2-0.2c0.2-0.3,0.4-0.6,0.5-1c0.1-0.2,0.2-0.5,0.2-0.8c0-0.2-0.1-0.4-0.2-0.6l-0.7-1.9L203.3,6
					c0-0.1-0.1-0.1-0.1-0.2l-0.4-0.2h-0.1C202.6,5.6,202.5,5.5,202.6,5.5L202.6,5.5z"/>
				<path class="st1" d="M102.7,26c0.2-0.1,0.4-0.1,0.6-0.1c0.2,0,0.5-0.1,0.7-0.2c0.2-0.6,0.2-1.2,0.2-1.8v-1v-0.6v-0.4V21v-2.1
					c0-0.2,0-0.3-0.1-0.5c-0.2-0.2-0.5-0.3-0.8-0.3c-0.1,0-0.2,0-0.3-0.1c0,0-0.1-0.1-0.1-0.2h0.2h0.7c0.2,0,0.3,0,0.5,0
					c0.4,0,0.8,0,1.2,0h0.5c0.6,0,1,0,1.3,0c0.5,0,1,0,1.4,0.1c0.5,0.1,1,0.3,1.4,0.6c0.4,0.2,0.7,0.5,0.9,0.8
					c0.3,0.4,0.5,0.8,0.7,1.2c0.2,0.5,0.2,1,0.2,1.5c0,0.5-0.1,1-0.3,1.5c-0.2,0.5-0.4,0.9-0.8,1.3c-0.3,0.3-0.6,0.6-1,0.8
					c-0.5,0.2-1,0.4-1.5,0.5c-0.5,0.1-1,0.1-1.5,0.1c-0.5,0-0.9,0-1.2,0h-0.4h-0.1l-2.6,0v0c0,0,0,0,0-0.1L102.7,26z M105.9,25.7
					c0.3,0.1,0.7,0.2,1,0.2c0.4,0,0.9-0.1,1.3-0.2c0.4-0.1,0.8-0.3,1.1-0.6c0.3-0.2,0.6-0.5,0.8-0.8c0.2-0.3,0.3-0.5,0.4-0.8
					c0.1-0.5,0.2-0.9,0.2-1.4c0-0.6-0.1-1.1-0.3-1.7c-0.2-0.4-0.5-0.8-0.8-1.1c-0.4-0.4-0.9-0.6-1.4-0.8c-0.6-0.2-1.2-0.3-1.8-0.2
					c-0.3,0-0.7,0-1,0.1c0,0-0.1,0.1-0.1,0.1c0,0.1,0,0.2,0,0.3c0,0.1,0,0.1,0,0.2c0,0.5,0,0.9,0,1.2v1.4c0,1.2,0,2.4,0.1,3.5
					C105.4,25.4,105.7,25.6,105.9,25.7L105.9,25.7z"/>
				<path class="st1" d="M117.7,25.2c0,0,0,0.1,0,0.1c0,0.1-0.1,0.2-0.2,0.3c-0.1,0.2-0.3,0.3-0.4,0.5c-0.4,0.2-0.8,0.1-1.1-0.2
					c-0.1-0.2-0.2-0.4-0.2-0.6l-0.7,0.5c-0.2,0.1-0.4,0.2-0.6,0.3c-0.2,0.1-0.5,0.1-0.8,0.1c-0.2,0-0.4-0.1-0.5-0.2
					c-0.1-0.1-0.2-0.3-0.2-0.5c0.1-0.4,0.2-0.8,0.5-1c0.4-0.4,0.9-0.8,1.5-1c0.4-0.2,0.7-0.3,0.8-0.4s0-0.3,0-0.5
					c0-0.4,0-0.8-0.2-1.1c-0.2-0.2-0.4-0.3-0.7-0.3c-0.3,0-0.6,0.1-0.8,0.4c-0.2,0.2-0.3,0.5-0.3,0.8c0,0.1-0.1,0.2-0.2,0.4
					c-0.1,0.1-0.3,0.2-0.4,0.2c-0.1,0-0.2,0-0.2-0.1c0,0-0.1-0.1-0.1-0.1c0.1-0.3,0.2-0.5,0.4-0.8c0.2-0.4,0.5-0.7,0.9-0.9
					c0.3-0.2,0.6-0.3,0.9-0.3c0.3,0,0.5,0,0.8,0.1c0.2,0.1,0.3,0.2,0.5,0.4c0.1,0.2,0.2,0.3,0.2,0.5c0,0.3,0,0.7,0,1v1v1
					c0,0.1,0,0.2,0,0.3c0,0.1,0,0.2,0.1,0.3c0.1,0.1,0.2,0.1,0.3,0.1c0.2,0,0.3-0.1,0.4-0.2l0.1-0.1
					C117.6,25.2,117.7,25.2,117.7,25.2z M115.9,25c0-0.5,0-0.9,0-1.1s0-0.3,0-0.5c-0.3,0.1-0.6,0.3-0.9,0.5
					c-0.3,0.2-0.6,0.4-0.8,0.7c-0.1,0.2-0.2,0.4-0.2,0.5c0,0.2,0.1,0.3,0.2,0.4c0.1,0.1,0.3,0.2,0.4,0.2c0.2,0,0.3-0.1,0.5-0.1
					C115.4,25.4,115.6,25.2,115.9,25z"/>
				<path class="st1" d="M119.7,19.8h0.2v0.6v0.8h0.1h0.6h0.6h0.4c0,0.1,0,0.1,0,0.2c0,0.1,0,0.2,0,0.3h-0.1h-1H120h-0.1
					c0,0.1,0,0.2,0,0.4v1v1.7c0,0.3,0,0.6,0.2,0.9c0.1,0.2,0.3,0.2,0.5,0.2c0.2,0,0.4,0,0.6-0.1c0.1,0,0.3-0.1,0.4-0.2h0.1
					c0,0,0.1,0,0.1,0c0,0,0,0.1,0,0.1l0,0c-0.2,0.2-0.4,0.3-0.6,0.4c-0.3,0.1-0.6,0.1-0.9,0.1c-0.2,0-0.5-0.1-0.7-0.2
					c-0.2-0.1-0.3-0.3-0.3-0.5c-0.1-0.4-0.1-0.8-0.1-1.1v-1.4V22c0-0.1,0-0.2,0-0.4h-0.7c0,0-0.1,0-0.1,0c0,0,0-0.1,0-0.1
					c0,0,0-0.1,0.1-0.1c0.1-0.1,0.2-0.1,0.3-0.1c0.1-0.1,0.3-0.2,0.4-0.3c0.1-0.1,0.3-0.3,0.4-0.4c0.1-0.2,0.2-0.3,0.2-0.5
					L119.7,19.8z"/>
				<path class="st1" d="M126.8,25.2c0,0,0,0.1,0,0.1c0,0.1-0.1,0.2-0.2,0.3c-0.1,0.2-0.3,0.4-0.4,0.5c-0.1,0.1-0.3,0.1-0.4,0.1
					c-0.3,0-0.5-0.1-0.7-0.3c-0.1-0.2-0.2-0.4-0.2-0.6l-0.7,0.5c-0.4,0.3-0.9,0.4-1.3,0.4c-0.2,0-0.4-0.1-0.5-0.2
					c-0.1-0.1-0.2-0.3-0.2-0.5c0.1-0.4,0.2-0.8,0.5-1c0.4-0.4,0.9-0.8,1.5-1c0.4-0.2,0.7-0.3,0.8-0.4s0-0.3,0-0.5
					c0-0.4,0-0.8-0.2-1.1c-0.2-0.2-0.4-0.3-0.7-0.3c-0.3,0-0.6,0.1-0.8,0.4c-0.2,0.2-0.3,0.5-0.3,0.8c0,0.1-0.1,0.2-0.2,0.4
					c-0.1,0.1-0.3,0.2-0.4,0.2c-0.1,0-0.2,0-0.2-0.1c0,0-0.1-0.1-0.1-0.1c0.1-0.3,0.2-0.5,0.3-0.8c0.2-0.4,0.5-0.7,0.9-0.9
					c0.3-0.2,0.6-0.3,0.9-0.3c0.3,0,0.5,0,0.8,0.1c0.2,0.1,0.4,0.2,0.5,0.4c0.1,0.2,0.2,0.3,0.2,0.5c0,0.3,0,0.7,0,1v1v0.7
					c0,0.1,0,0.2,0,0.2s0,0.2,0,0.3c0,0.1,0,0.2,0.1,0.3c0.1,0.1,0.2,0.1,0.3,0.1c0.2,0,0.3-0.1,0.4-0.2l0.1-0.1
					C126.7,25.2,126.7,25.2,126.8,25.2z M125,25c0-0.5,0-0.9,0-1.1c0-0.2,0-0.3,0-0.5c-0.3,0.1-0.6,0.3-0.9,0.5
					c-0.3,0.2-0.6,0.4-0.8,0.7c-0.1,0.2-0.2,0.4-0.2,0.5c0,0.2,0.1,0.3,0.2,0.4c0.1,0.1,0.3,0.2,0.4,0.2c0.2,0,0.3-0.1,0.5-0.1
					C124.5,25.4,124.8,25.2,125,25z"/>
				<path class="st1" d="M127.1,18.1L127.1,18.1c0-0.1,0-0.1,0-0.2c0.5-0.1,1-0.2,1.5-0.4h0.1c0,0,0,0.1,0,0.1v3.7c0,0,0,0.1,0,0.2
					l0.5-0.2l0.5-0.2c0.2,0,0.5-0.1,0.7-0.1c0.4,0,0.8,0.1,1.1,0.2c0.5,0.2,0.8,0.6,1.1,1c0.1,0.3,0.2,0.7,0.2,1c0,0.3,0,0.7-0.1,1
					c-0.1,0.4-0.3,0.7-0.5,1c-0.2,0.3-0.5,0.5-0.9,0.6c-0.4,0.2-0.8,0.3-1.2,0.3c-0.4,0-0.7-0.1-1.1-0.2c-0.2-0.1-0.4-0.2-0.6-0.2
					c-0.1,0-0.3,0.2-0.5,0.5H128c0-0.3,0-0.6,0-1v-3.1v-0.6v-0.8c0,0,0-0.2,0-0.5v-0.4c0-0.4,0-0.9-0.1-1.3
					C127.7,18.3,127.4,18.2,127.1,18.1z M130.1,25.9c0.5,0,1.1-0.2,1.5-0.5c0.4-0.5,0.5-1,0.5-1.6c0-0.6-0.2-1.2-0.6-1.6
					c-0.4-0.4-0.9-0.6-1.4-0.6c-0.3,0-0.7,0.1-1,0.2c-0.2,0.1-0.3,0.1-0.3,0.2s0,0.5,0,1.4c0,0.6,0,1.2,0.1,1.8
					c0,0.2,0.2,0.4,0.4,0.6C129.6,25.8,129.9,25.9,130.1,25.9L130.1,25.9z"/>
				<path class="st1" d="M138.7,25.2c0,0,0,0.1,0,0.1c0,0.1-0.1,0.2-0.1,0.3c-0.1,0.2-0.3,0.3-0.4,0.5c-0.1,0.1-0.3,0.1-0.4,0.1
					c-0.3,0-0.5-0.1-0.7-0.3c-0.1-0.2-0.2-0.4-0.2-0.6l-0.7,0.5c-0.2,0.1-0.4,0.2-0.6,0.3c-0.3,0.1-0.5,0.1-0.8,0.1
					c-0.2,0-0.4-0.1-0.5-0.2c-0.1-0.1-0.2-0.3-0.2-0.5c0-0.4,0.2-0.8,0.5-1c0.4-0.4,0.9-0.8,1.5-1l0.8-0.4c0-0.1,0-0.3,0-0.5
					c0-0.4,0-0.8-0.2-1.1c-0.2-0.2-0.4-0.3-0.6-0.3c-0.3,0-0.6,0.1-0.8,0.4c-0.2,0.2-0.3,0.5-0.4,0.8c0,0.1-0.1,0.2-0.1,0.4
					c-0.1,0.1-0.3,0.2-0.4,0.2c-0.1,0-0.2,0-0.3-0.1c0,0-0.1-0.1-0.1-0.1c0.2-0.7,0.6-1.2,1.2-1.6c0.3-0.2,0.6-0.3,0.9-0.3
					c0.3,0,0.5,0,0.8,0.1c0.4,0.2,0.6,0.5,0.7,0.9c0,0.1,0,0.4,0,1v1v0.7c0,0.1,0,0.2,0,0.2v0.3c0,0.1,0,0.2,0.1,0.3
					c0.1,0.1,0.2,0.1,0.3,0.1c0.2,0,0.3-0.1,0.4-0.2l0.1-0.1C138.6,25.2,138.7,25.2,138.7,25.2z M136.9,25c0-0.5,0-0.9,0-1.1
					s0-0.3,0-0.5c-0.3,0.1-0.6,0.3-0.9,0.5c-0.3,0.2-0.6,0.4-0.8,0.7c-0.1,0.2-0.2,0.4-0.2,0.5c0,0.2,0.1,0.3,0.2,0.4
					c0.1,0.1,0.3,0.2,0.4,0.2c0.2,0,0.3-0.1,0.5-0.1C136.4,25.4,136.6,25.2,136.9,25z"/>
				<path class="st1" d="M139.8,24.5c0.1,0.3,0.2,0.5,0.4,0.8c0.1,0.2,0.3,0.4,0.6,0.6c0.2,0.1,0.5,0.2,0.7,0.2
					c0.3,0,0.5-0.1,0.7-0.3c0.2-0.1,0.2-0.3,0.2-0.5c0-0.3-0.1-0.6-0.3-0.8c-0.3-0.3-0.7-0.5-1.1-0.7c-0.4-0.1-0.8-0.4-1.1-0.7
					c-0.2-0.2-0.3-0.5-0.3-0.8c0-0.3,0.1-0.5,0.2-0.8c0.2-0.2,0.4-0.4,0.6-0.5c0.2-0.1,0.5-0.2,0.8-0.2c0.3,0,0.5,0,0.8,0.1
					c0.2,0,0.4,0.1,0.6,0.2c0,0.2,0.1,0.5,0.1,1v0.2h-0.2c-0.1-0.3-0.3-0.6-0.6-0.8c-0.2-0.2-0.5-0.3-0.8-0.3
					c-0.4,0-0.8,0.3-0.8,0.7c0,0,0,0.1,0,0.1c0,0.2,0.1,0.4,0.2,0.5c0.3,0.2,0.6,0.4,0.9,0.5c0.4,0.1,0.7,0.3,1,0.5
					c0.2,0.2,0.4,0.4,0.5,0.6c0.1,0.2,0.1,0.4,0.1,0.7c0,0.3-0.1,0.6-0.3,0.8c-0.2,0.2-0.4,0.4-0.7,0.5c-0.2,0.1-0.5,0.1-0.8,0.1
					c-0.5,0-1-0.1-1.5-0.3c0,0-0.1-0.1-0.1-0.2c0-0.1,0-0.1,0-0.2c-0.1-0.6-0.1-0.9-0.1-1c0,0,0-0.1,0-0.1
					C139.6,24.5,139.7,24.5,139.8,24.5z"/>
				<path class="st1" d="M148.6,22.7h-2.5h-0.5H145c0,0.1-0.1,0.2-0.1,0.3v0.4c0,0.3,0.1,0.7,0.2,1c0.1,0.3,0.4,0.6,0.7,0.9
					c0.3,0.2,0.7,0.3,1.1,0.3c0.2,0,0.4,0,0.6-0.1c0.2-0.1,0.4-0.2,0.6-0.3l0.5-0.4V25c0,0,0,0.1,0,0.1c-0.2,0.3-0.4,0.5-0.7,0.6
					c-0.3,0.2-0.6,0.3-0.9,0.4c-0.2,0-0.5,0.1-0.7,0c-0.3,0-0.6-0.1-0.9-0.2c-0.4-0.2-0.8-0.5-1-0.9c-0.3-0.5-0.4-1-0.4-1.5
					c0-0.2,0-0.5,0.1-0.7c0.1-0.3,0.2-0.6,0.4-0.9c0.1-0.2,0.3-0.4,0.4-0.5c0.2-0.2,0.4-0.3,0.7-0.4c0.3-0.1,0.7-0.2,1-0.2
					c0.3,0,0.7,0.1,1,0.2c0.3,0.2,0.6,0.4,0.8,0.7c0.2,0.3,0.2,0.5,0.2,0.8L148.6,22.7z M145.1,22.5h0.3c0.2,0,0.9,0,1.9-0.1
					c0.1,0,0.2,0,0.3,0c0.1-0.1,0.1-0.1,0.1-0.2c0-0.2,0-0.3-0.1-0.5c-0.1-0.2-0.2-0.3-0.4-0.4c-0.2-0.1-0.4-0.1-0.6-0.1
					c-0.5,0-0.9,0.2-1.2,0.5C145.2,21.9,145.1,22.2,145.1,22.5z"/>
			</g>
			<line class="st2" x1="98" y1="0" x2="98" y2="29"/>
			<g id="g10">
				<g id="g12">
					<path id="path14" class="st3" d="M0.2,16.1c0,4.7,5.8,9.8,9.2,10l0,0c3.4-0.2,9.2-5.3,9.2-10c0-6.3,0-15,0-15H0.2V16.1"/>
					<path id="path16" class="st1" d="M0.5,1.3v14.8c0,4.6,5.7,9.6,9,9.7c3.2-0.2,9-5.1,9-9.7c0-5.7,0-13.4,0-14.8L0.5,1.3z
						 M9.5,26.3L9.5,26.3C6,26.1,0,21,0,16.1V0.8h18.9v0.2c0,0.1,0,8.8,0,15C18.9,21,12.9,26.1,9.5,26.3L9.5,26.3"/>
					<path id="path18" class="st4" d="M9.3,7.4v16.2h0.6V7.4H9.3"/>
					<path id="path20" class="st5" d="M13.5,7.3h1.9c0.2,0,0.4,0,0.3,0.3s-0.3,0.8-0.4,1h-1.5c-0.1-0.2-0.2-0.5-0.4-0.9
						C13.3,7.5,13.2,7.3,13.5,7.3z M13.2,13h2.9c0.9,0,0.9,0.1,1,0.3c0-0.3-0.2-1.7-0.4-2.8c0-0.5-0.2-1.1-0.5-1.5
						c-0.1-0.2-0.3-0.3-0.4-0.3c0-0.1,0.3-0.6,0.4-1.1c0.1-0.2,0-0.4-0.2-0.6c-0.2-0.1-0.3-0.1-0.5-0.1h-2c-0.5,0-0.8,0.3-0.6,0.7
						C13,8,13.2,8.5,13.2,8.7c-0.6,0.2-0.9,1.1-1,1.9c-0.1,1.3-0.4,3-0.4,3.1S11.8,14,12.1,14c0.7,0,1.4,0,2.1,0
						c0.1,0.1,0.3,0.1,0.4,0.1c0.1,0,0.3,0,0.4-0.1h1.4h-1.3c0.1-0.1,0.1-0.3,0.1-0.5c-0.1,0.7-0.9,0.6-0.7-0.1
						c-0.2,0-0.3,0-0.5,0.1c0,0.1,0,0.3,0.1,0.4l-1.4-0.1c-0.2,0-0.3-0.1-0.2-0.2C12.9,13.2,12.9,13.1,13.2,13"/>
					<path id="path22" class="st1" d="M9.5,23.5c0,0.2-0.1,0.3-0.2,0.3s-0.3-0.1-0.3-0.2c0,0,0-0.1,0-0.1v-1.6
						c0-0.2,0.1-0.3,0.2-0.3s0.3,0.1,0.3,0.2c0,0,0,0.1,0,0.1V23.5"/>
					<path id="path24" class="st6" d="M5.5,4.4c0.1,0,0.2,0,0.3,0C5.8,4.4,5.6,4.3,5.5,4.3C5.3,3.6,4.4,3.8,4.3,4.4
						c0,0.2-0.8,0.3-1.6,1.4c-0.3,0.4-0.7,0.7-1.1,1C1.5,6.9,1.9,6.9,2.1,6.7c0.2,0.2,0.5-0.3,1-0.4C3.2,6.3,4.9,6,4.4,5
						c0.6,0.8-0.4,1.3-1,1.4c0.1,0,0.4,0,0.4,0.1s0,0.1,0,0.2c0.2,0.1,0.4,0.3,0.5,0.4c0,0,0.2-0.1,0.1-0.2C4.2,6.7,4.2,6.7,4.1,6.6
						c0-0.1,0-0.1,0-0.2c0,0,0,0,0.1,0c0.6-0.1,1.1-0.7,1-1.3c0,0,0-0.1,0-0.1C5.2,4.7,5.3,4.5,5.5,4.4"/>
					<path id="path26" class="st3" d="M5.4,4.3C5.4,4.3,5.4,4.4,5.4,4.3C5.3,4.4,5.3,4.4,5.4,4.3c-0.1,0.1-0.2,0.1-0.2,0
						c0,0,0,0,0,0C5.2,4.2,5.2,4.2,5.4,4.3C5.3,4.2,5.4,4.2,5.4,4.3"/>
					<path id="path28" class="st1" d="M9.7,21.5v2.3H10v-2.3H9.7"/>
					<path id="path30" class="st5" d="M10.3,24.2c0.1-0.1,0.1-0.2,0.1-0.4c0-0.3-0.2-0.5-0.5-0.5h0H9c-0.3,0-0.5,0.2-0.6,0.5
						c0,0.1,0.1,0.3,0.1,0.4c-0.1,0.1-0.2,0.2-0.4,0.4c0.8,0.3,1.7,0.3,2.4,0L10.3,24.2"/>
					<path id="path32" class="st4" d="M9.4,5.5L9.4,5.5C8.7,5.1,7.8,5,6.9,5.2C7,5.4,7.1,5.5,7.1,5.7c0.8-0.2,1.6-0.2,2.3,0.2l0,0
						c0.7-0.3,1.6-0.4,2.4-0.2c0-0.2,0.1-0.4,0.2-0.6C11.2,5,10.3,5.1,9.4,5.5"/>
					<path id="path34" class="st1" d="M9.8,7.4V20H10V7.4H9.8"/>
					<path id="path36" class="st1" d="M8.9,7.4v11.6h0.6V7.4H8.9"/>
					<path id="path38" class="st3" d="M10.1,11.9c0-0.2,0-0.4,0-0.6h-1C9.4,11.4,9.8,11.6,10.1,11.9"/>
					<path id="path40" class="st3" d="M8,22.3c0.3,0,2.1,0.1,2.1,0.1l0.3,0.8C9.5,23.1,8.7,22.8,8,22.3"/>
					<path id="path42" class="st4" d="M15.1,17c-0.5-0.4-1.2-0.1-1.9-0.7c0,1.9,1.4,2.2,0.6,2.7c-0.6,0.4-1.3,0.6-2,0.5
						c0.1-0.1,0.2-0.2,0.2-0.4c-0.6-0.1-1.3-0.1-1.9,0c-1.2-0.4-2.4-0.7-3.6-0.7c0.3,0.3,0.5,0.7,0.5,1.2c-0.3-0.7-0.8-1.2-1.5-1.4
						c-0.1,0-0.2-0.1-0.4-0.1c-0.1,0.1-0.3,0.3-0.4,0.3c-0.1-0.1-0.2,0-0.2,0.1c0,0,0,0,0,0c-0.1,0.2-0.5,0.1-0.8,0
						s-0.3,0.1-0.3,0.2s0.2,0.3,0.3,0.4c0.3,0.9,1,1.7,1.9,2.2c1,0.7,2.2,1.1,3.4,1.1c0.9,0.3,1.9,0.4,2.8,0.2
						c-0.2-0.1-0.4-0.3-0.6-0.5c1.7-0.4,3.1-1.6,3.8-3.2l0,0c0.1-0.4-0.2-0.9-0.8-0.4c0.4-1,1.2-0.6,1,0c0.6-0.9,1.4-1.5,2.4-1.9
						C16.8,16.4,15.9,16.5,15.1,17"/>
					<path id="path44" class="st3" d="M10.1,15.3c0.1-0.2,0.1-0.4,0-0.6H9.1C9.5,14.9,9.8,15.1,10.1,15.3"/>
					<path id="path46" class="st5" d="M10.5,14.2c0,0.3-0.3,0.5-0.6,0.5H9c-0.3,0-0.5-0.2-0.5-0.5c0-0.3,0.2-0.5,0.5-0.5
						c0,0,0,0,0,0h0.9C10.2,13.7,10.5,13.9,10.5,14.2"/>
					<path id="path48" class="st6" d="M9.9,14.6h-1c0.5-0.1,0.9-0.3,1.2-0.6c0.1,0.1,0.1,0.4,0,0.5C10.1,14.5,10,14.6,9.9,14.6"/>
					<path id="path50" class="st3" d="M10.1,18.8c0.1-0.2,0.1-0.4,0-0.6H9.1C9.5,18.3,9.8,18.5,10.1,18.8"/>
					<path id="path52" class="st5" d="M10.5,17.7c0,0.3-0.3,0.5-0.6,0.5H9c-0.3,0-0.5-0.2-0.5-0.5c0-0.3,0.2-0.5,0.5-0.5
						c0,0,0,0,0,0h0.9C10.2,17.1,10.5,17.4,10.5,17.7"/>
					<path id="path54" class="st6" d="M9.9,18h-1c0.5,0,0.9-0.2,1.2-0.6c0.1,0.1,0.1,0.3,0,0.5C10.1,18,10,18,9.9,18"/>
					<path id="path56" class="st5" d="M8.6,8.3v1.6h1.6V8.3H8.6"/>
					<path id="path58" class="st6" d="M10.3,9.9c-0.2,0-0.3,0.2-0.3,0.4H8.9c0-0.2-0.1-0.4-0.3-0.4H10.3"/>
					<path id="path60" class="st6" d="M9.6,8.3v1.6H10V8.3H9.6"/>
					<path id="path62" class="st5" d="M4.2,18.4c-0.1,0-0.1-0.1-0.2-0.2c-0.1-0.3,0-0.6,0.3-0.7c0.1,0,0.1,0,0.2,0
						c0.1,0.1,0.2,0.2,0.2,0.4c0,0.1,0,0.2,0,0.2c0,0.1-0.1,0.3-0.3,0.3C4.4,18.4,4.3,18.4,4.2,18.4z M4.2,17.3
						c-0.2,0.1-0.3,0.2-0.4,0.4c-0.1,0.2-0.1,0.4,0,0.6c0,0.1,0.1,0.2,0.3,0.3c0.1,0,0.3,0,0.4,0c0.2-0.1,0.3-0.2,0.4-0.4
						c0.2-0.3,0-0.7-0.3-0.9C4.5,17.2,4.3,17.2,4.2,17.3"/>
					<path id="path64" class="st4" d="M4.5,18.3c-0.2-0.1-0.4-0.1-0.6-0.1c-0.2,0-0.4-0.1-0.4-0.2s0.1-0.1,0.1-0.1
						c0.3,0,0.7,0,1,0.1C4.6,18.1,4.6,18.2,4.5,18.3"/>
					<path id="path66" class="st7" d="M5.2,5.2c0,0.5-0.3,1-0.8,1.1C4.5,6.1,4.7,5.3,5.2,5.2"/>
					<path id="path68" class="st5" d="M10.5,10.8c0,0.3-0.2,0.5-0.5,0.5c0,0,0,0,0,0H9c-0.3,0-0.5-0.2-0.5-0.5
						c0-0.3,0.2-0.5,0.5-0.5c0,0,0,0,0,0h0.9C10.2,10.2,10.5,10.5,10.5,10.8C10.5,10.8,10.5,10.8,10.5,10.8"/>
					<path id="path70" class="st6" d="M9.9,11.1h-1c0.5,0,0.9-0.2,1.3-0.6c0.1,0.1,0.1,0.4,0,0.5C10.1,11.1,10,11.1,9.9,11.1"/>
					<path id="path72" class="st1" d="M6.2,18.6c0.4,0.2,0.6,0.6,0.8,1C7.2,19.3,7.2,19,7,18.8c0.8-0.1,1.6,0.1,2.3,0.4
						c1,0.5,2.1,0.6,3.1,0.5c1-0.2,1.4-0.4,1.8-0.8c0.2-0.3,0.6-0.2,0.5,0.2c-0.3,0.8-1,1.5-1.8,1.8c-1.8,0.6-3.8,0.6-5.7,0.1
						c-1.2-0.2-2.2-0.7-3.1-1.5C4,19.2,3.9,19,3.9,18.8c0-0.1,0-0.1,0.2-0.1c0.3,0.1,0.6,0,0.8-0.3C5.3,18.3,5.8,18.4,6.2,18.6"/>
					<path id="path74" class="st8" d="M14.5,18.9c-0.8,1.6-2.4,1.8-4.1,1.9c-0.7,0-1.3-0.1-1.9-0.2c0.4,0.1,0.9,0,1.3-0.1
						c-0.1-0.6-1.2-1.1-1.9-1.1c-0.1-0.2-0.2-0.4-0.5-0.5c0.2,0.2,0.2,0.5,0.3,0.7c0.6,0,1.3,0.3,1.7,0.8c-0.1,0.2-1.2,0.1-1.8-0.1
						C7.2,20.2,7,20,6.8,19.7c-0.3,0.3-0.8,0.2-1.2,0c0-0.2-0.2-0.4-0.4-0.4c0,0.1,0.1,0.1,0.1,0.2c-0.5-0.3-1-0.7-1.3-0.7
						s0.8,2,1.8,2.3c2.9,1.7,7.7,0.9,8.9-1.9C14.8,18.9,14.6,18.6,14.5,18.9"/>
					<path id="path76" class="st1" d="M5.3,19.5c0,0.2-0.1,0.3-0.3,0.4c-0.2,0-0.3-0.1-0.4-0.3c0,0,0,0,0,0c0-0.2,0.1-0.3,0.3-0.3
						c0,0,0,0,0.1,0C5.2,19.2,5.3,19.3,5.3,19.5"/>
					<path id="path78" class="st3" d="M5.2,19.5c0,0.1-0.1,0.2-0.2,0.1c-0.1,0-0.2-0.1-0.2-0.1c0,0,0,0,0,0c0-0.1,0.1-0.2,0.2-0.2
						c0,0,0,0,0,0C5.1,19.4,5.2,19.4,5.2,19.5"/>
					<path id="path80" class="st1" d="M13.5,16.6c-0.2,0.7,0.6,1.6,0.6,1.6C14,17.7,13.7,17.2,13.5,16.6"/>
					<path id="path82" class="st1" d="M14.1,16.8c-0.3,0.4,0.3,1.3,0.3,1.3C14.3,17.7,14.2,17.2,14.1,16.8"/>
					<path id="path84" class="st1" d="M15,17.8c0.2-0.5,0.7-0.9,1.2-1.2C15.2,16.8,14.9,17.5,15,17.8"/>
					<path id="path86" class="st1" d="M9.4,2.6C9,1.8,8.4,2.5,7.3,2.1C7.1,3,7,4.6,6.9,4.8c0.7,0.2,1.4-0.5,2.3,0.1
						c-0.1-0.7,0-1.4,0.3-2.1C9.4,2.9,9.4,2.7,9.4,2.6"/>
					<path id="path88" class="st4" d="M9.4,2.6C9.4,2.5,9.3,2.4,9.1,2.3C9.2,3.1,9,4,8.6,4.7C8.8,4.7,9,4.8,9.2,5
						c-0.1-0.7,0-1.4,0.3-2V2.6"/>
					<path id="path90" class="st1" d="M11.6,2.1c-1.1,0.3-1.7-0.3-2.1,0.5c0,0.3,0,2.4,0,2.5c1-1,1.7-0.1,2.5-0.3
						C12,4.6,11.8,3,11.6,2.1"/>
					<path id="path92" class="st5" d="M9.1,6.7v0.7h0.6V6.7H9.1"/>
					<path id="path94" class="st5" d="M9.5,6.1l0.3,0.5H9.1L9.5,6.1z"/>
					<path id="path96" class="st9" d="M4.4,8.1L4.4,8.1"/>
					<path id="path98" class="st10" d="M6.8,11.5c0,0,0.8-0.4,0.9-0.8c-0.3-0.2-0.6-0.3-0.9-0.3c0,0,0.7-0.6,0.7-1
						c-0.3-0.1-0.7-0.1-1-0.1c0.2-0.3,0.4-0.6,0.4-1c-0.3,0-0.7,0-1,0.2C6,8.1,6,7.8,5.9,7.4C5.6,7.3,5.1,7.9,5.1,7.9
						C4.9,7.5,4.7,7.1,4.5,6.8C4.2,7.1,4,7.5,3.9,8c0,0-0.5-0.6-0.9-0.5c-0.1,0.3-0.1,0.7,0,1C2.7,8.4,2.3,8.3,2,8.3
						c0,0.4,0.1,0.8,0.4,1.1c-0.3-0.1-0.7,0-1,0.1c0,0.4,0.7,1,0.7,1c-0.3,0-0.6,0.1-0.9,0.3c0.1,0.4,0.9,0.8,0.9,0.8
						c-0.3,0.1-0.6,0.2-0.8,0.4c0.2,0.3,0.6,0.5,1,0.6c-0.2,0.2-0.4,0.3-0.5,0.6c0.8,0.4,1.6,0.5,2.4,0.1c0,0.8,0,1.6-0.2,2.4h1
						c-0.2-0.8-0.2-1.6-0.2-2.4c0.8,0.3,1.7,0.2,2.4-0.2c-0.1-0.2-0.3-0.4-0.5-0.6c0.4-0.1,0.7-0.3,1-0.6
						C7.5,11.7,7.2,11.5,6.8,11.5"/>
					<path id="path100" class="st11" d="M5.9,11.5c0.3-0.1,0.6-0.3,0.8-0.6c-0.2-0.2-0.5-0.2-0.8-0.2c0.3-0.2,0.5-0.5,0.7-0.8
						C6.3,9.8,6,9.8,5.7,9.8c0.2-0.3,0.4-0.6,0.4-1C5.9,8.9,5.6,9,5.3,9.1c0.1-0.3,0.2-0.7,0.1-1C5.2,8.1,5,8.4,4.9,8.5
						C4.9,8.3,4.7,8.1,4.5,8C4.3,8.3,4.2,8.6,4.3,8.9c0.1-0.1,0.2-0.2,0.3-0.3c0.1,0.3,0,0.7-0.1,1c0.2-0.1,0.4-0.2,0.6-0.2
						c0,0.4-0.2,0.7-0.4,1c0.2-0.1,0.4-0.2,0.6-0.2c-0.1,0.4-0.3,0.8-0.6,1c0.2-0.1,0.5-0.1,0.7,0c-0.1,0.4-0.4,0.5-0.8,0.7
						c0.2,0,0.4,0,0.6,0.1c-0.2,0.3-0.5,0.4-0.8,0.5c0.6,0.2,1.2,0.3,1.8,0.2c-0.1-0.2-0.3-0.4-0.5-0.5c0.3-0.1,0.6-0.2,0.9-0.4
						C6.5,11.6,6.2,11.5,5.9,11.5"/>
					<path id="path102" class="st6" d="M10.1,23.5c0.1,0.1,0.1,0.5-0.3,0.6c-0.3,0-0.7,0-1,0C9.3,24,9.8,23.8,10.1,23.5"/>
					<path id="path104" class="st6" d="M13.2,9.6c0-0.6,0.3-0.7,0.7-0.7h1.2c-0.5,0-0.9,0.3-1,0.8c-0.1,0.5-0.1,2.2-0.1,3
						c-0.4,0-0.9,0-1,0C13.1,11.9,13.1,10.1,13.2,9.6"/>
					<path id="path106" class="st6" d="M9.5,6.7v0.7h0.2V6.7H9.5"/>
					<path id="path108" class="st6" d="M9.6,6.6L9.5,6.1v0.5H9.6z"/>
					<path id="path110" class="st3" d="M17.4,26.9c0.3,0,0.6-0.1,0.9-0.2l0.1-0.1V27v1.9c0,0.1,0,0.1-0.1,0.2
						c-0.2,0.1-0.4,0.2-0.6,0.2H1.2c-0.2,0-0.5-0.1-0.6-0.2c0,0-0.1-0.1-0.1-0.1V27v-0.2v-0.1h0.1c0.3,0.1,0.6,0.2,0.9,0.2
						L17.4,26.9"/>
					<path id="path112" class="st12" d="M17.4,26.9c0.3,0,0.6-0.1,0.9-0.2l0.1-0.1V27v1.9c0,0.1,0,0.1-0.1,0.2
						c-0.2,0.1-0.4,0.2-0.6,0.2H1.2c-0.2,0-0.5-0.1-0.6-0.2c0,0-0.1-0.1-0.1-0.1V27v-0.2v-0.1h0.1c0.3,0.1,0.6,0.2,0.9,0.2
						L17.4,26.9z"/>
					<path id="path114" class="st4" d="M16.3,24.9c0.1,0.6,0.1,1.1,0,1.7c0.5,0.1,1.1,0.1,1.7,0c0.4-0.2,0.6-0.3,0.4-0.5
						c-0.4-0.4-0.9-0.7-1.4-0.8C16.8,25.2,16.5,25.1,16.3,24.9"/>
					<path id="path116" class="st4" d="M2.7,25c0.1,0.5-0.3,1.2,0,1.7c-0.6,0-1.2,0-1.8,0c-0.3-0.1-0.8-0.3-0.3-0.6
						C1.3,25.8,2,25.4,2.7,25"/>
					<path id="path118" class="st1" d="M17.4,26.9c0.3,0,0.6-0.1,0.9-0.2l0.1-0.1V27v1.9c0,0.1,0,0.1-0.1,0.2
						c-0.2,0.1-0.4,0.2-0.6,0.2H1.2c-0.2,0-0.5-0.1-0.6-0.2c0,0-0.1-0.1-0.1-0.1V27v-0.2v-0.1h0.1c0.3,0.1,0.6,0.2,0.9,0.2
						L17.4,26.9z M16.4,26.4c0.1-0.2,0.1-0.3,0.1-0.5c0-0.1,0-0.2,0-0.3c0,0,0,0,0-0.1v-0.2l0.1,0.1c0.2,0.2,0.5,0.3,0.7,0.4
						l0.2,0.1l0.2,0.1c0.1,0.1,0.2,0.2,0.2,0.3v0.1h-0.1c-0.2,0.1-0.4,0.1-0.6,0.1L16.4,26.4L16.4,26.4z M0.9,26.4L0.9,26.4
						L0.9,26.4c0-0.2,0.1-0.3,0.2-0.4l0.1,0l0.3-0.1c0.3-0.1,0.5-0.2,0.7-0.4l0.1-0.1v0.2v0.1c0,0.1,0,0.2,0,0.3
						c0,0.2,0,0.4,0.1,0.5v0.1H1.4C1.2,26.5,1,26.5,0.9,26.4L0.9,26.4z M2.9,24.4c-0.4,0.5-0.9,0.8-1.5,1l-0.2,0.1l-0.2,0.1H0.9l0,0
						l-0.1,0.1c-0.5,0.2-0.8,0.7-0.7,1.2v2c0,0.2,0.1,0.4,0.2,0.5c0.3,0.2,0.6,0.4,1,0.3h16.5c0.4,0,0.7-0.1,1-0.3
						c0.1-0.1,0.2-0.3,0.2-0.5v-2.1c0.1-0.4-0.1-0.8-0.5-1l-0.3-0.2l-0.3-0.1l0,0l-0.2-0.1c-0.6-0.2-1.1-0.5-1.5-1v-0.1v0.1
						c0,0.1,0,0.2,0,0.4c0,0.2,0,0.4,0.1,0.6c0.1,0.3,0.2,0.7,0.2,1v0.1H2.6v-0.1c0-0.3,0.1-0.6,0.2-1c0.1-0.2,0.1-0.4,0.1-0.7
						C2.9,24.6,2.9,24.5,2.9,24.4L2.9,24.4L2.9,24.4"/>
					<path id="path120" class="st1" d="M1.2,27.5h0.4l0.2,0.7c0,0.1,0,0.1,0,0.2c0-0.1,0-0.1,0-0.2L2,27.5h0.4L2,28.7H1.7L1.2,27.5"
						/>
					<path id="path122" class="st1" d="M2.7,27.5v1.2H3v-1.2H2.7"/>
					<path id="path124" class="st1" d="M4,28.2l-0.1-0.4c0-0.1,0-0.1,0-0.2c0,0.1,0,0.1,0,0.2l-0.1,0.4H4z M3.6,27.5H4l0.4,1.2H4.1
						l-0.1-0.2H3.6l-0.1,0.2H3.2L3.6,27.5"/>
					<path id="path126" class="st1" d="M5.1,27.5h0.3l0.2,0.7c0,0.1,0,0.1,0,0.2c0-0.1,0-0.1,0-0.2L6,27.5h0.4l-0.5,1.2H5.6
						L5.1,27.5"/>
					<path id="path128" class="st1" d="M6.6,27.5h0.8v0.3H6.9v0.2h0.4v0.3H6.9v0.2h0.4v0.3H6.6V27.5"/>
					<path id="path130" class="st1" d="M8,28c0.1,0,0.2,0,0.2-0.2S8.1,27.7,8,27.7h0V28z M7.6,27.4H8c0.1,0,0.3,0,0.4,0.1
						c0.1,0.1,0.1,0.2,0.1,0.3c0,0.2-0.1,0.3-0.3,0.4l0.3,0.5H8.2L8,28.2v0.5H7.7L7.6,27.4"/>
					<path id="path132" class="st1" d="M8.8,27.5v1.2h0.3v-1.2H8.8"/>
					<path id="path134" class="st1" d="M9.7,27.8H9.4v-0.3h0.9v0.3H10v0.9H9.7V27.8"/>
					<path id="path136" class="st1" d="M11.2,28.2l-0.1-0.4c0,0,0-0.1,0-0.2c0,0.1,0,0.1,0,0.2L11,28.2H11.2z M10.8,27.5h0.4
						l0.4,1.2h-0.3l-0.1-0.2h-0.5l-0.1,0.2h-0.3L10.8,27.5"/>
					<path id="path138" class="st1" d="M12.2,28.5c0.1,0,0.1,0,0.1-0.1s-0.1-0.1-0.2-0.2s-0.3-0.1-0.3-0.3c0-0.2,0.2-0.4,0.4-0.4
						c0,0,0,0,0,0c0.1,0,0.3,0,0.4,0.1l-0.1,0.2c-0.1-0.1-0.2-0.1-0.2-0.1c-0.1,0-0.1,0-0.1,0.1s0.1,0.1,0.2,0.1s0.3,0.1,0.3,0.4
						c0,0.2-0.2,0.4-0.4,0.4c0,0,0,0,0,0c-0.2,0-0.3-0.1-0.4-0.2l0.1-0.2C12,28.4,12.1,28.4,12.2,28.5"/>
					<path id="path140" class="st1" d="M13.4,27.5h0.4l0.2,0.7c0,0.1,0,0.1,0,0.2c0-0.1,0-0.1,0-0.2l0.2-0.7h0.4l-0.5,1.2h-0.3
						L13.4,27.5"/>
					<path id="path142" class="st1" d="M14.9,27.5v1.2h0.3v-1.2H14.9"/>
					<path id="path144" class="st1" d="M15.8,27.8h-0.3v-0.3h0.9v0.3h-0.3v0.9h-0.3L15.8,27.8"/>
					<path id="path146" class="st1" d="M17.3,28.2l-0.1-0.4c0-0.1,0-0.1,0-0.2c0,0.1,0,0.1,0,0.2L17,28.2H17.3z M16.9,27.5h0.4
						l0.4,1.2h-0.3l-0.1-0.2h-0.5l-0.1,0.2h-0.3L16.9,27.5"/>
					<path id="path148" class="st1" d="M36.9,0.8v0.3c-1.2,0-1.6,0.5-1.6,1.7v4.9c0,2.2-1.4,4.6-5.3,4.6c-3.4,0-5.2-2-5.2-4.5V2.5
						c0-1.2-0.3-1.3-1.5-1.4V0.8h4.6v0.3h-0.2c-1,0-1.4,0.3-1.4,1.3v5c0,2.4,1.4,3.9,4.1,3.9c2,0,4.1-0.8,4.1-3.9V3.3
						c0-1.7-0.3-2-1.8-2.1V0.8H36.9"/>
					<path id="path150" class="st1" d="M38.9,10.5c0,1,0.2,1.2,1.2,1.2V12h-3.6v-0.3c0.6,0.1,1.1-0.3,1.2-0.9c0-0.1,0-0.1,0-0.2V6.8
						c0-0.7-0.1-0.8-0.5-0.9l-0.6-0.1V5.5l2.1-0.8h0.3v1.4c0.9-0.7,2-1.2,3.1-1.4c1.2,0,1.9,0.9,1.9,2.7c0,2.4-0.1,2.9-0.1,3.6
						c0,0.5,0.3,0.7,1,0.7h0.4V12h-3.8v-0.3c0.4,0,0.7-0.1,1-0.3c0.3-0.3,0.4-1.7,0.4-4c0-1.4-0.7-1.9-1.4-1.9
						c-0.9,0.2-1.7,0.6-2.4,1.2L38.9,10.5"/>
					<path id="path152" class="st1" d="M47.7,0.6c0.4,0,0.8,0.3,0.8,0.7c0,0.4-0.4,0.7-0.8,0.7c-0.4,0-0.7-0.3-0.8-0.7c0,0,0,0,0,0
						C46.9,0.8,47.3,0.5,47.7,0.6C47.7,0.5,47.7,0.5,47.7,0.6z M48.4,10.7c0,0.6,0.3,1,1.3,1V12h-4v-0.3c1.1,0,1.5-0.4,1.5-1.3V6.8
						c0-0.7-0.1-0.8-0.6-0.9l-0.8-0.2V5.4l2.3-0.8h0.3V10.7"/>
					<path id="path154" class="st1" d="M53.4,12.2l-2.6-6c-0.3-0.6-0.5-0.8-0.8-0.9l-0.6-0.1V4.9h3.7v0.3c-1.1,0-1.4,0.2-1,1
						l1.9,4.5l1.8-4.2c0.3-0.7,0.2-1.3-1.2-1.3V4.9h3.1v0.3c-0.7,0.1-1.2,0.6-1.4,1.3l-2.5,5.7H53.4"/>
					<path id="path156" class="st1" d="M62.6,7c-0.2-1.2-0.9-2-1.8-2c-0.6,0-1.5,0.3-1.8,2H62.6z M58.9,7.5c0,0.3-0.1,0.5-0.1,0.8
						c-0.1,1.6,1.1,3,2.7,3.1c0,0,0,0,0,0c0.9,0,1.8-0.4,2.3-1.2l0.2,0.2c-0.7,1.1-1.9,1.8-3.2,1.9c-1.8,0-3.1-1.6-3.1-3.7
						c-0.1-2,1.4-3.7,3.4-3.9c0,0,0.1,0,0.1,0c2.4,0,2.4,1.7,3,2.3v0.4L58.9,7.5"/>
					<path id="path158" class="st1" d="M67.4,10.7c0,0.7,0.3,1,1.2,1h0.7V12H65v-0.3c0.9,0,1.2-0.4,1.2-1.4V6.2L65,5.7V5.4l2-0.7
						h0.4v1.9l0,0c0.9-1.5,1.1-1.8,1.7-1.8c0.2,0,0.4,0.1,0.6,0.2c0.2,0.1,0.5,0.1,0.9,0.3l-0.4,1.1c-0.3,0-0.7-0.1-1-0.3
						c-0.2-0.1-0.4-0.2-0.6-0.2c-0.3,0-0.6,0.2-0.7,0.5c-0.2,0.3-0.4,0.6-0.6,0.9v3.5"/>
					<path id="path160" class="st1" d="M71.7,10.2c0.2,1.1,0.9,1.7,1.7,1.7c0.7,0,1.3-0.5,1.3-1.2c0,0,0,0,0,0
						c0-0.4-0.1-0.6-0.6-1.1c-1.3-1.3-2.7-1.4-2.7-2.9c0-1.1,1-2,2.1-2c0.1,0,0.1,0,0.2,0c0.5,0,1,0.1,1.4,0.3v1.6h-0.3
						c0-0.8-0.6-1.4-1.4-1.5c-0.5-0.1-1,0.3-1.1,0.9c0,0,0,0.1,0,0.1c0,1.6,3.3,1.8,3.3,4.1c-0.1,1.3-1.3,2.2-2.5,2
						c-0.2,0-0.3-0.1-0.5-0.1c-0.2-0.1-0.3-0.1-0.5-0.1c-0.1,0-0.2,0.1-0.3,0.2h-0.3l-0.2-2L71.7,10.2"/>
					<path id="path162" class="st1" d="M78.6,0.6c0.4,0,0.8,0.3,0.8,0.7c0,0.4-0.4,0.7-0.8,0.7c-0.4,0-0.7-0.3-0.8-0.7c0,0,0,0,0,0
						C77.8,0.8,78.2,0.5,78.6,0.6C78.6,0.5,78.6,0.5,78.6,0.6z M79.3,10.7c0,0.6,0.3,1,1.3,1V12h-4v-0.3c1.1,0,1.5-0.4,1.5-1.3V6.8
						C78.1,6,78,6,77.5,5.9l-0.8-0.2V5.4L79,4.6h0.3L79.3,10.7"/>
					<path id="path164" class="st1" d="M85.3,4.9L85,5.7h-1.9v4.2c-0.1,0.7,0.4,1.4,1.2,1.5c0.4,0,0.8-0.3,1.1-0.9l0.3,0.3
						c-0.3,0.9-1.1,1.4-2,1.5c-1,0-1.9-0.9-1.8-2c0,0,0-0.1,0-0.1V5.7H81V5.4c0.8-0.5,1.5-1.3,1.7-2.3h0.3v1.8H85.3"/>
					<path id="path166" class="st1" d="M92,6.9c0.5-1.4,0.2-1.6-0.9-1.7V4.9h3v0.3c-0.7,0.1-1.2,0.6-1.5,1.4l-3,7.6
						c-0.5,1.3-1,1.9-1.6,1.9c-0.4,0-0.7-0.2-0.7-0.6c0,0,0,0,0,0c0-0.7,1-0.6,1.5-1c0.3-0.3,0.5-0.6,0.6-1l0.5-1.4l-2.8-6
						c-0.3-0.7-0.7-1-1.4-1.1V4.9h3.6v0.3c-1.1,0-1.2,0.3-0.9,1.1l2,4.4L92,6.9"/>
					<path id="path168" class="st1" d="M27.1,18.8c-1.1,0-2.1,2.2-2.1,4c0,1.5,0.6,2.2,1.3,2.2c1.4,0,2.3-2.3,2.3-4
						C28.5,19.8,27.9,18.8,27.1,18.8z M28,18.1c0.5,0,1.6,0.7,1.6,2.6c-0.1,2.4-1.9,4.5-4.2,4.9c-0.8,0-1.6-1.4-1.6-2.8
						C23.8,19.9,26.9,18.1,28,18.1"/>
					<path id="path170" class="st1" d="M30.3,18.9l0.1-0.3c0.4-0.1,0.9-0.1,1.3-0.2c0.2-1.5,0.8-2.9,1.8-4c0.5-0.6,1.3-1,2.1-1
						c0.7,0,1.3,0.4,1.3,0.9c0,0.3-0.2,0.5-0.5,0.5c0,0,0,0,0,0c-0.6,0-1.1-0.7-1.6-0.7c-0.7,0-1.3,0.8-1.5,2l-0.5,2.4h1.5l-0.2,0.6
						h-1.5l-0.9,5.3c-0.7,4-2.8,5.5-4.4,5.5c-0.8,0-1.4-0.4-1.4-0.8c0-0.3,0.3-0.5,0.6-0.5c0.7,0,1,0.8,1.7,0.8
						c0.4,0,0.8-0.2,1.1-0.5c0.9-0.9,1.2-4,1.3-4.4l0.9-5.2L30.3,18.9"/>
					<path id="path172" class="st1" d="M47.5,24.6c-1.5,0.7-3.2,1.1-4.8,1.1c-3.1,0.1-5.7-2.3-5.8-5.3c0-0.1,0-0.2,0-0.3
						c0-3.3,2.6-6,5.9-6.1c0.1,0,0.2,0,0.4,0c1.2,0.1,2.4,0.3,3.6,0.6c0.2,0,0.3,0,0.4-0.1h0.2v2.9H47c-0.2-1.8-1.9-3.1-3.7-3
						c-3.2,0-4.8,2.6-4.8,5.5c0,3.7,2.6,5.3,4.7,5.3c1,0,1.9-0.2,2.8-0.6v-2.3c0-1-0.4-1.4-1.4-1.4h-0.7v-0.3h4.9V21
						c-0.9,0.1-1.3,0.4-1.3,1.1L47.5,24.6"/>
					<path id="path174" class="st1" d="M51.4,24c0,0.7,0.3,1.1,1,1.1h0.3v0.3h-4v-0.3c1.2,0,1.5-0.4,1.5-1.2v-8.7
						c0-0.5,0-0.7-0.5-0.7l-0.8-0.1v-0.3l2.3-0.7h0.3L51.4,24"/>
					<path id="path176" class="st1" d="M57.2,22.1c-0.3,0.2-0.7,0.4-1.1,0.5c-1.1,0.5-1.5,0.6-1.5,1.4c0,0.6,0.4,1,1,1
						c0,0,0.1,0,0.1,0c0.3,0,0.5-0.1,1.5-0.8L57.2,22.1z M53.7,20.5c0-0.1-0.1-0.2-0.1-0.2c0.4-1.1,1.5-1.9,2.7-2.1
						c0.7,0,1.4,0.4,1.9,1c0.3,0.4,0.3,0.6,0.3,1.5V23c0,1.5,0,1.8,0.5,1.8c0.3,0,0.7-0.2,0.9-0.4l0.1,0.3c-1,0.8-1.5,1-1.8,1
						c-0.7,0-0.8-0.8-0.8-1.1c-1.2,1-1.6,1.1-2.1,1.1c-0.8,0.1-1.5-0.5-1.7-1.3c0-0.1,0-0.1,0-0.2c0-1.1,1-1.5,2.1-1.8
						c0.6-0.1,1.1-0.4,1.6-0.7v-1.4c0.1-0.4,0-0.8-0.3-1.2c-0.2-0.3-0.6-0.5-1-0.5c-0.5,0-1,0.4-1.1,0.9c0,0.1,0,0.2,0.1,0.4
						L53.7,20.5"/>
					<path id="path178" class="st1" d="M60.8,23.6c0.1,0.9,0.8,1.6,1.7,1.7c0.7,0,1.2-0.5,1.3-1.2c0,0,0,0,0,0
						c0-0.4-0.1-0.6-0.6-1.1c-1.3-1.3-2.7-1.4-2.7-2.9c0-1.1,1-2,2.1-2c0.1,0,0.1,0,0.2,0c0.5,0,1,0.1,1.4,0.3v1.6h-0.3
						c0-0.8-0.6-1.4-1.4-1.5c-0.5-0.1-1,0.3-1.1,0.9c0,0,0,0.1,0,0.1c0,1.6,3.3,1.9,3.3,4.1c0,1.2-1,2.1-2.1,2.1c0,0-0.1,0-0.1,0
						c-0.3,0-0.5,0-0.8-0.1c-0.2-0.1-0.3-0.1-0.5-0.1c-0.1,0-0.2,0.1-0.3,0.2h-0.3l-0.2-2L60.8,23.6"/>
					<path id="path180" class="st1" d="M68.8,18.5c-0.7,0-1.7,0.4-1.7,2c0,1.1,0.5,2.5,1.9,2.5c1.1,0,1.7-0.9,1.7-2.1
						C70.7,19.3,69.9,18.5,68.8,18.5z M69.3,29.1c1.5,0,3-1,3-2.1c0-0.7-0.6-1-1.2-1.1c-0.5,0-2.7-0.1-3.3-0.1
						c-0.5,0.6-1.2,0.9-1.2,1.5S67.8,29.1,69.3,29.1z M73.4,19.8c-0.6,0-1.2-0.1-1.8-0.2c0.2,0.3,0.3,0.7,0.3,1.1
						c0,1.3-1.2,2.6-3.2,2.6c-0.3,0-0.6,0-0.8-0.1c-0.3,0.3-1.1,0.5-1.1,0.9s0.8,0.6,2.6,0.6c2,0,2.7,0.1,3.3,0.6
						c0.3,0.3,0.5,0.8,0.5,1.3c0,1.2-1.6,3-4.9,3c-1.9,0-2.8-0.8-2.8-1.7c0-1,1.1-1.2,1.9-2.2c-1-0.1-1.7-0.7-1.7-1.3
						c0-0.8,1.2-0.9,1.8-1.3c-1-0.3-1.7-1.2-1.7-2.2c0.1-1.6,1.5-2.9,3.1-2.8c0,0,0,0,0.1,0c0.7,0,1.5,0.2,2,0.7
						c0.8,0,1.6-0.1,2.4-0.2L73.4,19.8"/>
					<path id="path182" class="st1" d="M77.9,25.2c1.4-0.2,2.4-1.5,2.3-2.9c0-2-1.2-3.8-2.8-3.8C76,18.7,75,20,75.1,21.3
						C75.1,23.5,76.3,25.2,77.9,25.2z M77.7,18.1c2.1,0.1,3.7,1.8,3.6,3.9s-1.8,3.7-3.9,3.6c-2-0.1-3.6-1.7-3.6-3.7
						c0-2.1,1.6-3.8,3.7-3.8C77.5,18.2,77.6,18.2,77.7,18.1"/>
					<path id="path184" class="st1" d="M89.9,25.6l-2.1-5.1l-2.2,5.1h-0.5l-2.7-6.1c-0.2-0.6-0.7-0.9-1.3-0.9v-0.3h3.5v0.3
						c-1.1,0-1.1,0.4-0.8,1.2l2,4.3l1.7-4.2c-0.4-0.9-0.7-1.2-1.3-1.3l-0.4,0v-0.3h3.7v0.3c-0.9,0-1.2,0.3-0.8,1.2l1.8,4.3l1.7-4.2
						c0.4-1,0.1-1.3-1-1.3v-0.3h3v0.3c-0.7,0.1-1.1,0.4-1.5,1.3l-2.3,5.7L89.9,25.6"/>
				</g>
			</g>
		</g>
	</g>
</g>
</svg>
