<svg xmlns="http://www.w3.org/2000/svg" viewBox="0 0 503.81 75.47"><defs><style>.cls-1,.cls-11,.cls-12{fill:#0d3258;}.cls-2{fill:#a3e1f9;}.cls-3{fill:#fccc22;}.cls-4{fill:#fff;}.cls-5{fill:#df9824;}.cls-6{fill:#ef2f2a;}.cls-7{fill:#409adb;}.cls-8{fill:#199445;}.cls-9{fill:#73c82c;}.cls-10{fill:#199948;}.cls-11{stroke:#0d3258;stroke-miterlimit:10;}.cls-12{font-size:28px;font-family:Garamond;letter-spacing:0em;}.cls-13{letter-spacing:-0.02em;}.cls-14{letter-spacing:0.13em;}.cls-15{letter-spacing:0.02em;}</style></defs><g id="Layer_2" data-name="Layer 2"><g id="svg2"><g id="g10"><g id="g12"><path id="path14" class="cls-1" d="M0,39.8c0,11.7,14.45,24.61,23.1,25.06h0c8.65-.45,23.11-13.36,23.1-25.06.06-15.89,0-37.77,0-37.77H0V39.8"/><path id="path16" class="cls-1" d="M90.44,2v.83c-3,.05-4,1.24-4,4.06V18.85c0,5.47-3.49,11.35-13.07,11.35-8.44,0-12.76-4.82-12.76-11.13V6.17c0-2.82-.8-3.26-3.8-3.31V2H68.14v.83h-.4c-2.42,0-3.49.67-3.49,3.23V18.36c0,6,3.49,9.54,10.07,9.54,5,0,10.07-2.08,10.07-9.58V8c0-4.24-.67-5-4.33-5.17V2H90.44"/><path id="path18" class="cls-1" d="M95.42,25.65c0,2.42.58,3,3,3v.84H89.51v-.84c1.94,0,3-1.06,3-2.78V16.6c0-1.64-.18-2-1.33-2.17l-1.5-.31v-.7l5.08-1.86h.7V15c3-1.85,5.43-3.48,7.6-3.48,3,0,4.72,2.2,4.72,6.62,0,5.87-.3,7-.35,8.74,0,1.19.66,1.77,2.47,1.77h1v.84h-9.5v-.84a3.51,3.51,0,0,0,2.52-.84c.84-.84.92-4.06.92-9.93,0-3.54-1.72-4.64-3.49-4.64-1.41,0-3.57,1.24-5.87,2.82v9.59"/><path id="path20" class="cls-1" d="M116.91,1.36A1.83,1.83,0,0,1,118.85,3a1.83,1.83,0,0,1-1.94,1.68A1.79,1.79,0,0,1,115,3,1.79,1.79,0,0,1,116.91,1.36Zm1.81,24.77c0,1.55.84,2.52,3.18,2.52v.84h-9.8v-.84c2.69,0,3.67-.88,3.67-3.22V16.55c0-1.72-.22-1.94-1.37-2.16l-2.08-.4v-.71l5.74-2h.66V26.13"/><path id="path22" class="cls-1" d="M130.9,29.89l-6.41-14.66c-.66-1.55-1.23-2.08-1.94-2.21l-1.37-.22V12h9v.8c-2.69.09-3.53.44-2.47,2.51l4.68,11,4.5-10.2c.8-1.81.4-3.09-2.82-3.31V12h7.68v.8c-1.68.31-2.65,1.28-3.49,3.22l-6.09,13.87H130.9"/><path id="path24" class="cls-1" d="M153.62,17.13c-.48-2.87-2.25-4.77-4.37-4.77-1.46,0-3.66.66-4.68,4.77Zm-9.19,1.14a16.26,16.26,0,0,0-.17,1.86c0,4.59,3.22,7.68,6.71,7.68a6.94,6.94,0,0,0,5.61-2.87l.49.53c-1.86,2.34-4.64,4.55-7.86,4.55-4.33,0-7.68-3.93-7.68-9,0-4.69,3.13-9.45,8.52-9.45,5.95,0,5.83,4.28,7.28,5.74v1h-12.9"/><path id="path26" class="cls-1" d="M165.37,26.27c0,1.8.66,2.38,2.87,2.38h1.68v.84H159.45v-.84c2.25,0,3-1,3-3.31V15.14l-3-1.06v-.75l5-1.77h.89v4.68h.08c2.21-3.62,2.74-4.46,4.2-4.46a3.05,3.05,0,0,1,1.5.4c.44.18,1.24.36,2.3.66l-1.06,2.65a8.06,8.06,0,0,1-2.34-.71,3.93,3.93,0,0,0-1.55-.44,2.16,2.16,0,0,0-1.72,1.15,19.76,19.76,0,0,0-1.41,2.21v8.57"/><path id="path28" class="cls-1" d="M175.93,25c.53,2.65,2.21,4.15,4.19,4.15a3,3,0,0,0,3.14-2.91c0-.93-.22-1.51-1.41-2.7-3.14-3.13-6.63-3.44-6.63-7.11,0-2.91,2.3-4.94,5.65-4.94a9.55,9.55,0,0,1,3.54.71l.09,4h-.76c-.31-2.25-1.76-3.66-3.53-3.66a2.55,2.55,0,0,0-2.69,2.47c0,3.89,8.21,4.55,8.21,9.93a5.17,5.17,0,0,1-5.47,5,5.55,5.55,0,0,1-1.95-.31,5,5,0,0,0-1.19-.26.94.94,0,0,0-.75.52h-.66L175.22,25h.71"/><path id="path30" class="cls-1" d="M192.68,1.36A1.83,1.83,0,0,1,194.62,3a1.83,1.83,0,0,1-1.94,1.68A1.79,1.79,0,0,1,190.78,3,1.79,1.79,0,0,1,192.68,1.36Zm1.81,24.77c0,1.55.84,2.52,3.18,2.52v.84h-9.81v-.84c2.7,0,3.67-.88,3.67-3.22V16.55c0-1.72-.22-1.94-1.37-2.16l-2.08-.4v-.71l5.74-2h.67V26.13"/><path id="path32" class="cls-1" d="M209.22,12l-.7,1.95h-4.75V24.23c0,2.78,2,3.72,2.91,3.72s1.85-.76,2.69-2.22l.71.67C209,28.7,207.3,30,205.26,30c-2.6,0-4.45-2.16-4.45-5.12V14h-2v-.71c1.72-.84,3.22-2.87,4.23-5.61h.76V12h5.45"/><path id="path34" class="cls-1" d="M225.71,16.9c1.32-3.35.48-4-2.12-4.1V12h7.33v.8c-1.81.22-2.82,1.46-3.66,3.53l-7.51,18.72c-1.32,3.27-2.34,4.73-3.89,4.73a1.64,1.64,0,0,1-1.81-1.55c0-1.81,2.56-1.37,3.67-2.47a9.23,9.23,0,0,0,1.5-2.52l1.32-3.31L213.7,15.4c-.84-1.81-1.63-2.56-3.49-2.6V12h8.88v.8c-2.7,0-3,.84-2.12,2.69l5,10.78,3.75-9.37"/><path id="path36" class="cls-1" d="M66.37,46.05c-2.78,0-5.25,5.34-5.25,9.76,0,3.7,1.59,5.52,3.09,5.52,3.53,0,5.61-5.74,5.61-9.8C69.82,48.43,68.32,46.05,66.37,46.05Zm2.26-1.63c1.27,0,4,1.76,4,6.49C72.64,59.3,64.3,63,62.22,63s-3.93-3.31-3.93-7c0-7.15,7.69-11.56,10.34-11.56"/><path id="path38" class="cls-1" d="M74.22,46.4l.13-.84A30.06,30.06,0,0,0,77.58,45c.66-3.62,2-7.42,4.45-9.89a7.68,7.68,0,0,1,5.21-2.38c1.73,0,3.14,1,3.14,2.11a1.25,1.25,0,0,1-1.24,1.29c-1.45,0-2.65-1.81-3.93-1.81-1.72,0-3.13,1.94-3.75,4.85L80.27,45h3.8l-.45,1.45H80L77.75,59.3C76,69.19,71,72.72,66.84,72.72c-1.85,0-3.39-.93-3.39-2a1.45,1.45,0,0,1,1.46-1.33c1.63,0,2.51,2,4.19,2A3.8,3.8,0,0,0,71.79,70c2.21-2.2,3-9.75,3.22-10.81L77.27,46.4h-3"/><path id="path40" class="cls-1" d="M116.38,60.35a29.68,29.68,0,0,1-11.83,2.79c-9.67,0-14.18-7.46-14.18-13.91,0-6.62,4.64-14.92,15.41-14.92,4.73,0,7.86,1.5,8.79,1.5a1.57,1.57,0,0,0,1-.31h.61v7.15h-.88c-1.19-5.52-4.94-7.24-9-7.24-7.77,0-11.75,6.45-11.75,13.56C94.52,58,100.88,62,106,62a14.89,14.89,0,0,0,6.76-1.68V54.79c0-2.51-.89-3.35-3.53-3.35h-1.64v-.8h11.92v.8c-2.21.13-3.09.88-3.09,2.78v6.13"/><path id="path42" class="cls-1" d="M126.11,58.94c0,1.81.84,2.65,2.56,2.65h.75v.84h-9.93v-.84c2.82,0,3.66-.84,3.66-3V37.31c0-1.24-.13-1.63-1.36-1.77l-2-.22v-.75l5.65-1.81h.66V58.94"/><path id="path44" class="cls-1" d="M140.34,54.22a21.12,21.12,0,0,1-2.6,1.24C135,56.56,134,57,134,58.82a2.57,2.57,0,0,0,2.6,2.59c.71,0,1.24-.21,3.71-1.94Zm-8.74-4a1.72,1.72,0,0,1-.13-.62c0-1.55,3.66-5.12,6.53-5.12a5.92,5.92,0,0,1,4.63,2.34c.67.93.67,1.5.67,3.8v5.91c0,3.54,0,4.33,1.15,4.33a3,3,0,0,0,2.16-1l.22.66c-2.38,1.95-3.62,2.43-4.37,2.43-1.81,0-2-2-2-2.69-3,2.51-3.93,2.69-5.12,2.69-2.56,0-4.11-1.46-4.11-3.62,0-2.69,2.39-3.62,5.21-4.32a14.92,14.92,0,0,0,3.93-1.69V49.85a3.64,3.64,0,0,0-.75-2.83,3.32,3.32,0,0,0-2.47-1.28,2.77,2.77,0,0,0-2.74,2.16,1.77,1.77,0,0,0,.22.84l-3,1.46"/><path id="path46" class="cls-1" d="M149,58c.54,2.65,2.21,4.15,4.21,4.15a3,3,0,0,0,3.13-2.91c0-.93-.22-1.5-1.42-2.7-3.13-3.13-6.62-3.44-6.62-7.1,0-2.92,2.3-4.95,5.65-4.95a9.8,9.8,0,0,1,3.54.71l.08,4h-.75c-.31-2.25-1.76-3.66-3.53-3.66A2.55,2.55,0,0,0,150.6,48c0,3.89,8.21,4.55,8.21,9.94a5.17,5.17,0,0,1-5.47,5,5.82,5.82,0,0,1-2-.3,4.58,4.58,0,0,0-1.19-.27.92.92,0,0,0-.75.53h-.67l-.48-5h.7"/><path id="path48" class="cls-1" d="M168.74,45.3c-1.68,0-4.28.93-4.28,5,0,2.61,1.32,6.1,4.68,6.1,2.56,0,4.24-2.12,4.24-5.17,0-3.8-1.95-6-4.64-6ZM170,71.48c3.75,0,7.28-2.47,7.28-5.25,0-1.64-1.36-2.48-3-2.61-1.14-.13-6.71-.18-8-.35-1.23,1.45-2.87,2.07-2.87,3.79C163.44,69.14,166.36,71.48,170,71.48Zm10-22.91a44,44,0,0,1-4.41-.54,5.74,5.74,0,0,1,.75,2.83c0,3.27-2.83,6.41-7.73,6.41a5.21,5.21,0,0,1-2-.36c-.71.75-2.69,1.24-2.69,2.25s1.89,1.55,6.31,1.59c5,0,6.71.27,8,1.59a4.26,4.26,0,0,1,1.32,3.09c0,2.87-3.89,7.29-12.06,7.29-4.59,0-6.79-2-6.79-4.2,0-2.56,2.69-3,4.72-5.42-2.38-.23-4.19-1.73-4.19-3.14,0-2,3-2.12,4.5-3.27-2.69-1.06-4.24-3-4.24-5.47,0-3.8,3.4-6.76,7.77-6.76a7,7,0,0,1,4.95,1.77,50.41,50.41,0,0,0,5.78-.45v2.79"/><path id="path50" class="cls-1" d="M191.05,61.9c2.61,0,5.56-2.65,5.56-7.06,0-5-3.08-9.32-6.79-9.32-2.92,0-5.61,3-5.61,6.8C184.21,57.66,187.26,61.9,191.05,61.9Zm-.62-17.44a9.25,9.25,0,1,1,.14,18.5c-5.48,0-9.67-4-9.67-9.14a9.27,9.27,0,0,1,9.53-9.36"/><path id="path52" class="cls-1" d="M220.41,62.83l-5.25-12.45-5.3,12.45h-1.23L202,48c-.61-1.37-1.23-2-3.26-2.25V45h8.56v.79c-2.6.13-2.78.88-1.85,3l4.77,10.64,4.32-10.24c-1-2.25-1.72-3.05-3.26-3.23l-1.06-.13V45h9.14v.79c-2.17,0-2.83.71-1.9,2.91l4.32,10.51,4.24-10.33c1-2.34.22-3.09-2.56-3.09V45h7.42v.79c-1.68.17-2.74,1-3.62,3.18l-5.7,13.91h-1.19"/><path id="path54" class="cls-2" d="M22.76,18V58.64h1.47V18H22.76"/><path id="path56" class="cls-3" d="M33.19,17.7c1.31,0,3.43,0,4.8,0,.43,0,1.13-.13.74.81s-.85,2-1.06,2.5H34c-.23-.55-.57-1.32-1-2.31C32.77,18.18,32.66,17.7,33.19,17.7ZM32.52,32h7.26c2.14,0,2.33.3,2.48.75-.09-.71-.55-4.36-.87-7A7.69,7.69,0,0,0,40.11,22a2.3,2.3,0,0,0-1.1-.82c.05-.15.64-1.62,1.08-2.81a1.23,1.23,0,0,0-.48-1.49,2.61,2.61,0,0,0-1.3-.26H33.14c-1.32,0-1.94.84-1.53,1.86.3.78.82,2.09,1,2.7-1.63.54-2.17,2.77-2.41,4.7-.4,3.26-.93,7.6-1,7.86-.06.42-.12.76.55.79,1.29.08,2.8.09,5.33,0a1.85,1.85,0,0,0,1,.21,1.62,1.62,0,0,0,.92-.27l3.56-.14-3.32-.09a1.59,1.59,0,0,0,.3-1.21c-.15,1.7-2.36,1.54-1.81-.26a2,2,0,0,0-1.24.32,1.19,1.19,0,0,0,.18,1.06c-1.43-.06-2.61-.11-3.46-.16-.44,0-.65-.34-.43-.63.93-1.21,1-1.43,1.68-1.43"/><path id="path58" class="cls-4" d="M23.15,58.46a.73.73,0,1,1-1.43,0v-4a.73.73,0,1,1,1.43,0v4"/><path id="path60" class="cls-5" d="M13.19,10.52a2.37,2.37,0,0,1,.86-.07,2.14,2.14,0,0,0-.82-.44c-.43-1.61-2.76-1.17-3,.26-.09.52-1.92.74-4,3.56A13.81,13.81,0,0,1,3.5,16.5c-.41.25.58.18,1-.31.43.44,1.28-.87,2.55-1.09.34,0,4.57-.82,3.46-3.24,1.49,1.91-1,3.29-2.56,3.45.14.07.95.13,1,.17.24.08-.07.37.12.47a10.94,10.94,0,0,1,1.36,1.11s.52-.17.29-.41c-.7-.46-.89-.6-1.07-.89A.36.36,0,0,1,10,15.2a2.92,2.92,0,0,0,2.47-3.54,1.16,1.16,0,0,1,.77-1.14"/><path id="path62" class="cls-1" d="M12.88,10.07a.25.25,0,0,1-.24.25.24.24,0,0,1-.23-.25.25.25,0,0,1,.23-.26.25.25,0,0,1,.24.26"/><path id="path64" class="cls-4" d="M23.81,53.41v5.71h.78V53.41h-.78"/><path id="path66" class="cls-3" d="M25.29,60a1.39,1.39,0,0,0,.37-.94,1.36,1.36,0,0,0-1.36-1.36H22a1.36,1.36,0,0,0-1.36,1.36A1.34,1.34,0,0,0,21,60c-.28.25-.78.73-.92.9a9.86,9.86,0,0,0,6.17,0L25.29,60"/><path id="path68" class="cls-2" d="M23.11,13.1h0c-1-.9-4.23-1.28-6.3-.75a11.92,11.92,0,0,1,.39,1.38,8.3,8.3,0,0,1,5.91.47v0A8.32,8.32,0,0,1,29,13.72a8.81,8.81,0,0,1,.39-1.37c-2.08-.53-5.3-.15-6.31.75"/><path id="path70" class="cls-4" d="M24,18V49.47h.46V18H24"/><path id="path72" class="cls-4" d="M21.74,18V47.2H23.2V18H21.74"/><path id="path74" class="cls-1" d="M24.6,29.2a3,3,0,0,0,0-1.45H22.23A7.27,7.27,0,0,1,24.6,29.2"/><path id="path76" class="cls-1" d="M19.47,55.25c.82.12,5.21.33,5.21.33l.72,1.86s-3.83-.1-5.93-2.19"/><path id="path78" class="cls-2" d="M37.43,41.9c-1.37-.88-3-.2-4.84-1.71,0,4.69,3.43,5.63,1.5,6.89A7.64,7.64,0,0,1,29,48.33a7.19,7.19,0,0,1,.61-.87,20.34,20.34,0,0,0-4.73,0,32.46,32.46,0,0,0-9.06-1.8,3.61,3.61,0,0,1,1.26,3c-.53-2.11-2.71-3.2-3.79-3.62a4.68,4.68,0,0,0-.93-.23,2.39,2.39,0,0,1-1.07.79c-.32-.17-.59.13-.54.23a.14.14,0,0,1,0,.15c-.31.41-1.34.22-2.11,0s-.85.31-.68.61c.28.49.55.81.68,1.08,1.17,2.4,2,4,4.65,5.46A15.52,15.52,0,0,0,22,55.9a14.59,14.59,0,0,0,7.13.62,4.82,4.82,0,0,1-1.51-1.3C31.84,54,35.49,51.23,37,47L37,46.9c.27-.92-.62-2.13-1.88-.93,1.09-2.63,2.9-1.49,2.52.06,1.44-1.94,3.37-4,5.95-4.82-2.36-1.09-4.67-.15-6.19.69"/><path id="path80" class="cls-1" d="M24.65,37.81a3.27,3.27,0,0,0,0-1.46c-.69,0-1.76,0-2.37,0a7.33,7.33,0,0,1,2.37,1.47"/><path id="path82" class="cls-3" d="M25.64,35a1.37,1.37,0,0,1-1.38,1.37H21.92a1.36,1.36,0,1,1,0-2.72h2.34A1.36,1.36,0,0,1,25.64,35"/><path id="path84" class="cls-5" d="M24.22,35.94c-1.37,0-2.55,0-2.55,0a5.21,5.21,0,0,0,3.16-1.42.85.85,0,0,1-.61,1.42"/><path id="path86" class="cls-1" d="M24.67,46.53a3.09,3.09,0,0,0,0-1.45c-.69,0-1.75,0-2.37,0a7.27,7.27,0,0,1,2.37,1.46"/><path id="path88" class="cls-3" d="M25.66,43.73a1.37,1.37,0,0,1-1.38,1.36H21.94a1.36,1.36,0,1,1,0-2.72h2.34a1.36,1.36,0,0,1,1.38,1.36"/><path id="path90" class="cls-5" d="M24.24,44.63H21.69a5.19,5.19,0,0,0,3.16-1.43.86.86,0,0,1-.61,1.43"/><path id="path92" class="cls-3" d="M21,20.16v4.07h4.14V20.16H21"/><path id="path94" class="cls-5" d="M25.18,24.22a.89.89,0,0,0-.68,1s-1.68,0-2.77,0c0-.06,0-.87-.69-1,0,0,3.87,0,4.14,0"/><path id="path96" class="cls-5" d="M23.46,20.16v4.12h1.12V20.16H23.46"/><path id="path98" class="cls-3" d="M10,45.46a.69.69,0,0,1-.38-.39,1.42,1.42,0,0,1,0-1.07,1.38,1.38,0,0,1,.71-.8.7.7,0,0,1,.54,0,.88.88,0,0,1,.47.87,1.58,1.58,0,0,1-.11.59,1.42,1.42,0,0,1-.71.8A.7.7,0,0,1,10,45.46Zm.13-2.75a1.91,1.91,0,0,0-1,1.1,2,2,0,0,0,0,1.49,1.2,1.2,0,0,0,1.64.63,2,2,0,0,0,1-1.1,1.63,1.63,0,0,0-.68-2.17,1.21,1.21,0,0,0-1,.05"/><path id="path100" class="cls-2" d="M10.72,45.31a5.78,5.78,0,0,0-1.5-.26c-.49,0-1-.3-1-.44s.16-.16.37-.19a10.62,10.62,0,0,1,2.61.17,1.43,1.43,0,0,1-.53.72"/><path id="path102" class="cls-6" d="M12.47,12.27a2.84,2.84,0,0,1-2.06,2.84c.15-.46.8-2.6,2.06-2.84"/><path id="path104" class="cls-3" d="M25.68,26.4a1.37,1.37,0,0,1-1.38,1.37H22a1.36,1.36,0,1,1,0-2.72H24.3a1.36,1.36,0,0,1,1.38,1.35"/><path id="path106" class="cls-5" d="M24.26,27.3c-1.38,0-2.56,0-2.56,0a5.2,5.2,0,0,0,3.17-1.43c.32.22.38,1.43-.61,1.43"/><path id="path108" class="cls-4" d="M15.08,46.14a5.4,5.4,0,0,1,2,2.47,2.51,2.51,0,0,0-.18-2.19c1.36-.39,3.72.22,5.85,1.06,3.13,1.22,5.46,1.63,7.85,1.22s3.63-.9,4.39-2.09c.41-.63,1.61-.5,1.28.46a7.52,7.52,0,0,1-4.61,4.42,25.78,25.78,0,0,1-14.19.29c-1.82-.45-6.1-1.59-7.85-3.83a3.35,3.35,0,0,1-.46-1.42c0-.17.09-.25.47-.18a1.58,1.58,0,0,0,1.87-.75,5.18,5.18,0,0,1,3.59.54"/><path id="path110" class="cls-7" d="M35.75,46.87c-2.07,4-6.1,4.57-10.31,4.7A17.82,17.82,0,0,1,20.56,51a8.62,8.62,0,0,0,3.3-.25c-.3-1.58-3-2.73-4.9-2.84-.35-.4-.46-.93-1.33-1.24.62.56.57,1.35.87,1.75,1.55.32,3.43.71,4.34,1.93-.32.41-3.11.18-4.64-.17a2.94,2.94,0,0,1-1.7-1.35c-.73.82-1.89.52-3.07-.07a1,1,0,0,0-.92-1,1.06,1.06,0,0,1,.17.58c-1.34-.77-2.62-1.72-3.26-1.67-.92.07,2,5.16,4.43,5.7,7.28,4.19,19.44,2.35,22.32-4.73.4-1,0-1.68-.42-.82"/><path id="path112" class="cls-4" d="M12.78,48.32a.87.87,0,0,1-1.72.17.87.87,0,0,1,1.72-.17"/><path id="path114" class="cls-1" d="M12.37,48.4a.43.43,0,0,1-.45.4.4.4,0,1,1,0-.79.43.43,0,0,1,.45.39"/><path id="path116" class="cls-4" d="M33.22,41.15c-.5,1.72,1.63,4.05,1.63,4.05a26.76,26.76,0,0,0-1.63-4.05"/><path id="path118" class="cls-4" d="M34.71,41.52c-.73,1,.65,3.3.65,3.3a12.13,12.13,0,0,0-.65-3.3"/><path id="path120" class="cls-4" d="M37,44.14a5.87,5.87,0,0,1,3-3c-2.56.31-3.14,2-3,3"/><path id="path122" class="cls-4" d="M23.11,6C22,3.88,20.49,5.49,17.79,4.65c-.48,2.21-.95,6.16-1.09,6.84,1.85.55,3.47-1.17,5.67.26a13,13,0,0,1,.68-5.22s0-.34.06-.56"/><path id="path124" class="cls-2" d="M23.11,6a2.1,2.1,0,0,0-.77-.89c-.32,3.39-.4,4.13-1.47,6.12a3.27,3.27,0,0,1,1.5.57,11.54,11.54,0,0,1,.74-5.09V6"/><path id="path126" class="cls-4" d="M28.43,4.64c-2.7.84-4.24-.77-5.32,1.32,0,.71,0,6,0,6.37,2.59-2.42,4.36-.24,6.4-.85-.14-.68-.61-4.63-1.09-6.84"/><path id="path128" class="cls-3" d="M22.36,16.21V18h1.5V16.21h-1.5"/><path id="path130" class="cls-3" d="M23.12,14.53l.75,1.31H22.36Z"/><path id="path132" class="cls-8" d="M10.5,19.69h0s0,0,0,0"/><path id="path134" class="cls-9" d="M16.53,28.23s2.06-1,2.27-2.06a4.41,4.41,0,0,0-2.25-.68s1.85-1.41,1.77-2.43a5.64,5.64,0,0,0-2.56-.18,4.18,4.18,0,0,0,1-2.63,6,6,0,0,0-2.45.41,4.67,4.67,0,0,0,0-2.69c-.89-.24-2.14,1.33-2.14,1.33a7.2,7.2,0,0,0-1.49-3,7.28,7.28,0,0,0-1.5,3S7.89,17.73,7,18a4.77,4.77,0,0,0,0,2.69,6,6,0,0,0-2.45-.41,4.2,4.2,0,0,0,1,2.63A5.68,5.68,0,0,0,3,23.06c-.07,1,1.77,2.43,1.77,2.43a4.36,4.36,0,0,0-2.24.68c.2,1,2.26,2.06,2.26,2.06a4,4,0,0,0-2,1.1,4.28,4.28,0,0,0,2.39,1.38,5,5,0,0,0-1.32,1.38C5,33,7.49,33.18,10,32.41a26.08,26.08,0,0,1-.57,6h2.49a26.66,26.66,0,0,1-.57-6c2.47.77,5,.63,6.12-.32a5.13,5.13,0,0,0-1.31-1.38,4.31,4.31,0,0,0,2.39-1.38,4,4,0,0,0-2-1.1"/><path id="path136" class="cls-10" d="M14.28,28.3a4.05,4.05,0,0,0,2-1.56,3.68,3.68,0,0,0-2-.61A4.79,4.79,0,0,0,16,24a4.52,4.52,0,0,0-2.22,0,6.5,6.5,0,0,0,1.05-2.43,7.48,7.48,0,0,0-2.16.66,4.52,4.52,0,0,0,.34-2.5,2.69,2.69,0,0,0-1.28,1.07,2,2,0,0,0-1-1.28,3,3,0,0,0-.55,2.26,4.06,4.06,0,0,1,.89-.7,4.36,4.36,0,0,1-.25,2.52,3.81,3.81,0,0,1,1.49-.52,3.7,3.7,0,0,1-1.11,2.63,4.21,4.21,0,0,1,1.62-.52,4.14,4.14,0,0,1-1.55,2.54,3,3,0,0,1,1.86,0c-.29.86-1,1.29-1.95,1.83a3.09,3.09,0,0,1,1.59.32,3.26,3.26,0,0,1-2,1.28,7.46,7.46,0,0,0,4.5.48,2.7,2.7,0,0,0-1.3-1.34,4.84,4.84,0,0,0,2.24-1,4.2,4.2,0,0,0-1.86-1"/><path id="path138" class="cls-2" d="M6,61.56c.35,1.16-.58,3.42.08,4.72-.56,0-4.16.65-4.69.18S-.53,65,.87,64.24s5-2.12,5.14-2.68"/><path id="path140" class="cls-2" d="M40.37,61.44c.42,3.73-.21,4.16-.17,5.23.35.09,3.21.69,4.22.14s1.72-1.87,1.25-2.41a10.82,10.82,0,0,0-3.74-2.18,2.49,2.49,0,0,1-1.56-.78"/><path id="path142" class="cls-1" d="M44.84,63.24c-1.55-.83-3.86-1.34-5.16-3.12-.5,1.79.69,2.83.64,5.47,1.1-2.05.2-2.56.38-3.53.89,1.13,2.22,1.29,3.14,1.77,1.19.62,1.91,2-.54,2-4.78,0-35.46,0-40.34,0-2.53,0-1.79-1.35-.61-2,.93-.48,2.27-.64,3.16-1.8.18,1-.73,1.47.37,3.52,0-2.64,1.13-3.63.66-5.44-1.3,1.78-3.65,2.29-5.21,3.12C0,63.94,0,64.41,0,66.68c0,1.52,0,3.44,0,4.73,0,.9,1,1.43,2.3,1.4H43.88c1.25,0,2.32-.49,2.32-1.39,0-1.29,0-3.23,0-4.75,0-2.33,0-2.73-1.36-3.43"/><path id="path144" class="cls-4" d="M2.32,67.77h.89l.62,1.73s0,.17.1.41A3.27,3.27,0,0,1,4,69.5l.6-1.73h.9L4.25,70.85H3.61L2.32,67.77"/><path id="path146" class="cls-4" d="M6,67.77v3.08h.86V67.77H6"/><path id="path148" class="cls-4" d="M9.41,69.71l-.31-1s0-.19-.11-.42c-.05.23-.09.37-.1.42l-.31,1Zm-.94-1.94h1l1.06,3.08H9.74l-.15-.55H8.4l-.16.55H7.4l1.07-3.08"/><path id="path150" class="cls-4" d="M12.24,67.77h.89l.62,1.73s0,.17.1.41c.06-.24.1-.38.11-.41l.61-1.73h.89l-1.29,3.08h-.64l-1.29-3.08"/><path id="path152" class="cls-4" d="M15.93,67.77h1.88v.68H16.74V69h1v.65h-1v.52h1.07v.69H15.93V67.77"/><path id="path154" class="cls-4" d="M19.53,69.23c.35,0,.52-.11.52-.38s-.16-.43-.51-.43h-.17v.81Zm-1-1.46h.93a1.6,1.6,0,0,1,1,.21.92.92,0,0,1,.34.76.81.81,0,0,1-.69.87L21,70.85h-.94l-.71-1.2v1.2h-.79V67.77"/><path id="path156" class="cls-4" d="M21.58,67.77v3.08h.85V67.77h-.85"/><path id="path158" class="cls-4" d="M23.76,68.5h-.68v-.73h2.21v.73H24.6v2.35h-.84V68.5"/><path id="path160" class="cls-4" d="M27.56,69.71l-.31-1s-.05-.19-.11-.42a3.42,3.42,0,0,1-.11.42l-.3,1Zm-.94-1.94h1l1.07,3.08h-.84l-.15-.55H26.55l-.16.55h-.84l1.07-3.08"/><path id="path162" class="cls-4" d="M30.11,70.28a.34.34,0,0,0,.38-.32c0-.24-.17-.32-.52-.41-.55-.14-.82-.37-.82-.85a1,1,0,0,1,1.06-1,1.49,1.49,0,0,1,.91.28l-.26.6a.9.9,0,0,0-.59-.25c-.21,0-.34.12-.34.26s.21.27.49.34c.55.15.85.35.85.92a1.08,1.08,0,0,1-1.18,1.09A1.46,1.46,0,0,1,29,70.48l.37-.62a1,1,0,0,0,.74.42"/><path id="path164" class="cls-4" d="M33.11,67.77H34l.61,1.73a2.48,2.48,0,0,1,.1.41c.06-.24.1-.38.11-.41l.61-1.73h.9L35,70.85H34.4l-1.29-3.08"/><path id="path166" class="cls-4" d="M36.81,67.77v3.08h.85V67.77h-.85"/><path id="path168" class="cls-4" d="M39,68.5h-.69v-.73h2.21v.73h-.69v2.35H39V68.5"/><path id="path170" class="cls-4" d="M42.8,69.71l-.32-1s0-.19-.1-.42l-.11.42-.31,1Zm-.95-1.94h1L44,70.85h-.83L43,70.3H41.78l-.16.55h-.83l1.06-3.08"/><path id="path172" class="cls-5" d="M24.78,58.32c.21.25.35,1.39-.64,1.47a10,10,0,0,1-2.52,0s2.28-.27,3.16-1.43"/><path id="path174" class="cls-5" d="M32.46,23.37c.1-1.4.76-1.72,1.67-1.7.5,0,1.27,0,3.13,0a2.52,2.52,0,0,0-2.52,2c-.16,1.26-.17,5.65-.2,7.51-.92,0-2.15,0-2.42.07.13-1.93.23-6.5.34-7.89"/><path id="path176" class="cls-5" d="M23.13,16.21V18h.45V16.21h-.45"/><path id="path178" class="cls-5" d="M23.58,15.85l-.46-1.32v1.31Z"/></g></g><line class="cls-11" x1="240.25" x2="240.25" y2="71.23"/><text class="cls-12" transform="translate(251.54 26.07)">S<tspan class="cls-13" x="13.3" y="0">c</tspan><tspan x="24.48" y="0">hool o</tspan><tspan class="cls-14" x="94.37" y="0">f</tspan><tspan x="106.96" y="0" xml:space="preserve"> Chemist</tspan><tspan class="cls-15" x="203.17" y="0">r</tspan><tspan x="213.21" y="0">y </tspan><tspan x="0" y="33.6">Database</tspan></text></g></g></svg>